<svg class="animated" id="freepik_stories-400-error-bad-request" xmlns="http://www.w3.org/2000/svg" xmlns:xlink="http://www.w3.org/1999/xlink" viewBox="0 0 500 500" version="1.1" xmlns:svgjs="http://svgjs.com/svgjs"><style>svg#freepik_stories-400-error-bad-request:not(.animated) .animable {opacity: 0;}svg#freepik_stories-400-error-bad-request.animated #freepik--background-simple--inject-74 {animation: 1s 1 forwards cubic-bezier(.36,-0.01,.5,1.38) lightSpeedRight;animation-delay: 0s;}svg#freepik_stories-400-error-bad-request.animated #freepik--Plants--inject-74 {animation: 1s 1 forwards cubic-bezier(.36,-0.01,.5,1.38) slideRight;animation-delay: 0s;}svg#freepik_stories-400-error-bad-request.animated #freepik--Text--inject-74 {animation: 1s 1 forwards cubic-bezier(.36,-0.01,.5,1.38) lightSpeedLeft,1.5s Infinite  linear floating;animation-delay: 0s,1s;}svg#freepik_stories-400-error-bad-request.animated #freepik--Clock--inject-74 {animation: 1s 1 forwards cubic-bezier(.36,-0.01,.5,1.38) zoomIn;animation-delay: 0s;}svg#freepik_stories-400-error-bad-request.animated #freepik--Character--inject-74 {animation: 1s 1 forwards cubic-bezier(.36,-0.01,.5,1.38) zoomIn;animation-delay: 0s;}svg#freepik_stories-400-error-bad-request.animated #freepik--Device--inject-74 {animation: 1s 1 forwards cubic-bezier(.36,-0.01,.5,1.38) slideDown;animation-delay: 0s;}svg#freepik_stories-400-error-bad-request.animated #freepik--Table--inject-74 {animation: 1s 1 forwards cubic-bezier(.36,-0.01,.5,1.38) zoomIn;animation-delay: 0s;}svg#freepik_stories-400-error-bad-request.animated #freepik--Floor--inject-74 {animation: 1s 1 forwards cubic-bezier(.36,-0.01,.5,1.38) slideUp;animation-delay: 0s;}            @keyframes lightSpeedRight {              from {                transform: translate3d(50%, 0, 0) skewX(-20deg);                opacity: 0;              }              60% {                transform: skewX(10deg);                opacity: 1;              }              80% {                transform: skewX(-2deg);              }              to {                opacity: 1;                transform: translate3d(0, 0, 0);              }            }                    @keyframes slideRight {                0% {                    opacity: 0;                    transform: translateX(30px);                }                100% {                    opacity: 1;                    transform: translateX(0);                }            }                    @keyframes lightSpeedLeft {              from {                transform: translate3d(-50%, 0, 0) skewX(20deg);                opacity: 0;              }              60% {                transform: skewX(-10deg);                opacity: 1;              }              80% {                transform: skewX(2deg);              }              to {                opacity: 1;                transform: translate3d(0, 0, 0);              }            }                    @keyframes floating {                0% {                    opacity: 1;                    transform: translateY(0px);                }                50% {                    transform: translateY(-10px);                }                100% {                    opacity: 1;                    transform: translateY(0px);                }            }                    @keyframes zoomIn {                0% {                    opacity: 0;                    transform: scale(0.5);                }                100% {                    opacity: 1;                    transform: scale(1);                }            }                    @keyframes slideDown {                0% {                    opacity: 0;                    transform: translateY(-30px);                }                100% {                    opacity: 1;                    transform: translateY(0);                }            }                    @keyframes slideUp {                0% {                    opacity: 0;                    transform: translateY(30px);                }                100% {                    opacity: 1;                    transform: inherit;                }            }        </style><g id="freepik--background-simple--inject-74" class="animable" style="transform-origin: 229.002px 245.175px;"><path d="M123.64,412.55s48,24.93,102.79-1.35S299,334,327.48,295.7c14.9-20,39.28-31.2,57.87-48.06,59.46-53.88,38-144-16.39-168.69-47.09-21.4-101.49-13.73-168.9,22.5s-116,59.61-151.37,131.81S64,377.62,123.64,412.55Z" style="fill: rgb(255, 114, 94); transform-origin: 229.002px 245.175px;" id="el5jws7skmzls" class="animable"></path><g id="el7hc16g5n3v2"><path d="M123.64,412.55s48,24.93,102.79-1.35S299,334,327.48,295.7c14.9-20,39.28-31.2,57.87-48.06,59.46-53.88,38-144-16.39-168.69-47.09-21.4-101.49-13.73-168.9,22.5s-116,59.61-151.37,131.81S64,377.62,123.64,412.55Z" style="fill: rgb(255, 255, 255); opacity: 0.7; transform-origin: 229.002px 245.175px;" class="animable"></path></g></g><g id="freepik--Plants--inject-74" class="animable" style="transform-origin: 412.967px 342.004px;"><path d="M415.3,381.13S412,367,414.46,354.45s8.34-4.17,15-12.51,3.34-24.18,10.84-30.85,18.35-5.84,20.85-18.35,4.17-22.51,9.17-20.84-4.17,16.67-4.17,25.85,5,15,1.67,24.18-17.51,5.83-17.51,16.67,5.84,21.68.83,29.19-18.34,9.17-20,13.34-5.84,11.67-10,11.67S415.3,381.13,415.3,381.13Z" style="fill: rgb(191, 191, 191); transform-origin: 442.68px 332.259px;" id="elj9yzbi2r8qr" class="animable"></path><path d="M412.58,381.28c.84-2.5-.83-24.18-8.33-28.35s-15.85-2.5-20-10-4.17-10.84-8.33-11.67-24.19-4.17-21.68,0,17.51-2.5,17.51,5.83-1.67,21.68,3.33,25,18.35,2.5,17.51,10-3.33,10,.84,12.5,15.84,13.35,17.51,5Z" style="fill: rgb(191, 191, 191); transform-origin: 383.4px 360.952px;" id="elfv2vx9s3zdq" class="animable"></path><path d="M421.86,399.66s-3.88-12.13,6.8-34.47,18.45-39.33,23.31-48.07" style="fill: none; stroke: rgb(38, 50, 56); stroke-miterlimit: 10; stroke-width: 1.23197px; transform-origin: 436.571px 358.39px;" id="elfam8rq9q4st" class="animable"></path><path d="M413.12,401.61s-1.45-5.83-6.31-21.85-10.68-20.4-18.94-25.74-8.74-14.08-10.19-16.51" style="fill: none; stroke: rgb(38, 50, 56); stroke-miterlimit: 10; stroke-width: 1.23197px; transform-origin: 395.4px 369.56px;" id="elelf8iti6l8r" class="animable"></path><path d="M433.52,392.87s1-8.74,8.74-11.17,15.05-1.46,16.51-6.8,1.45-10.68,4.85-13.6,7.77-4.37,8.26-2.91-4.86,2.43-4.86,7.28,7.28,17-3.4,21.86-19.42.48-23.3,3.88-6.32,5.83-6.32,5.83Z" style="fill: rgb(191, 191, 191); transform-origin: 452.716px 377.528px;" id="elcs23qsuu4o" class="animable"></path><path d="M432.55,401.61S436,389,444.2,386.07s17.48,3.4,21.36-2.43,1-11.65.49-15.54" style="fill: none; stroke: rgb(38, 50, 56); stroke-miterlimit: 10; stroke-width: 1.23197px; transform-origin: 450.053px 384.855px;" id="els0dq6ap5gwp" class="animable"></path><path d="M438,399.66H407.9a2.42,2.42,0,0,0-2.42,2.43h0a2.42,2.42,0,0,0,2.42,2.43h.25l2.34,6.15a2.52,2.52,0,0,0,2.35,1.62h20.23a2.52,2.52,0,0,0,2.35-1.62l2.35-6.15H438a2.43,2.43,0,0,0,2.43-2.43h0A2.43,2.43,0,0,0,438,399.66Z" style="fill: rgb(38, 50, 56); transform-origin: 422.955px 405.975px;" id="el3ylcxmoxoh8" class="animable"></path></g><g id="freepik--Text--inject-74" class="animable animator-active" style="transform-origin: 380.805px 217.787px;"><path d="M364,153.52v2.11h-5.14v7.48h6.31v2.13h-8.65v-21h8.65v2.13h-6.31v7.18Z" style="fill: rgb(38, 50, 56); transform-origin: 360.845px 154.74px;" id="elo9vnv8vmr8" class="animable"></path><path d="M372,144.21c3.3,0,4.69,1.68,4.69,4.81v1.71c0,2.31-.82,3.75-2.62,4.32,1.92.58,2.65,2.14,2.65,4.39v3.28a5.26,5.26,0,0,0,.42,2.52h-2.38a5.5,5.5,0,0,1-.39-2.55v-3.31c0-2.37-1.11-3.12-3.06-3.12h-1.65v9h-2.35v-21Zm-.6,9.91c1.86,0,3-.6,3-2.88v-2c0-1.9-.69-2.89-2.43-2.89h-2.28v7.78Z" style="fill: rgb(38, 50, 56); transform-origin: 372.225px 154.735px;" id="elb6l5h11z6i" class="animable"></path><path d="M383.81,144.21c3.3,0,4.68,1.68,4.68,4.81v1.71c0,2.31-.81,3.75-2.61,4.32,1.92.58,2.64,2.14,2.64,4.39v3.28a5.26,5.26,0,0,0,.42,2.52h-2.37a5.5,5.5,0,0,1-.39-2.55v-3.31c0-2.37-1.11-3.12-3.07-3.12h-1.65v9h-2.34v-21Zm-.6,9.91c1.86,0,3-.6,3-2.88v-2c0-1.9-.69-2.89-2.43-2.89h-2.29v7.78Z" style="fill: rgb(38, 50, 56); transform-origin: 384.03px 154.735px;" id="elkh9b5t9vnwf" class="animable"></path><path d="M390.77,149.29c0-3.22,1.6-5.29,4.81-5.29s4.84,2.07,4.84,5.29v10.87c0,3.19-1.59,5.29-4.84,5.29s-4.81-2.1-4.81-5.29Zm2.32,11c0,1.92.81,3,2.49,3s2.5-1.12,2.5-3V149.17c0-1.9-.79-3-2.5-3s-2.49,1.14-2.49,3Z" style="fill: rgb(38, 50, 56); transform-origin: 395.595px 154.725px;" id="elp5o4xg98cv" class="animable"></path><path d="M407.33,144.21c3.3,0,4.68,1.68,4.68,4.81v1.71c0,2.31-.81,3.75-2.61,4.32,1.92.58,2.64,2.14,2.64,4.39v3.28a5.26,5.26,0,0,0,.42,2.52h-2.37a5.5,5.5,0,0,1-.39-2.55v-3.31c0-2.37-1.11-3.12-3.06-3.12H405v9h-2.34v-21Zm-.6,9.91c1.86,0,3-.6,3-2.88v-2c0-1.9-.69-2.89-2.43-2.89H405v7.78Z" style="fill: rgb(38, 50, 56); transform-origin: 407.56px 154.735px;" id="elbtpkkdmt77o" class="animable"></path><path d="M317.61,229.53l20.24-47.87H350v47.87h5.27v10.12H350V252.5H339.06V239.65H317.61Zm21.45,0V202.91l-11.23,26.62Z" style="fill: rgb(38, 50, 56); transform-origin: 336.44px 217.08px;" id="elluaj1l9pt9" class="animable"></path><path d="M363.45,198.66c0-11.34,6-17.81,16.91-17.81s16.9,6.47,16.9,17.81V235.5c0,11.34-6,17.81-16.9,17.81s-16.91-6.47-16.91-17.81Zm11.14,37.55c0,5.06,2.22,7,5.77,7s5.76-1.92,5.76-7V198c0-5.06-2.22-7-5.76-7s-5.77,1.92-5.77,7Z" style="fill: rgb(38, 50, 56); transform-origin: 380.355px 217.08px;" id="elxu9jmeyvcyr" class="animable"></path><path d="M407.58,198.66c0-11.34,6-17.81,16.9-17.81s16.9,6.47,16.9,17.81V235.5c0,11.34-6,17.81-16.9,17.81s-16.9-6.47-16.9-17.81Zm11.13,37.55c0,5.06,2.23,7,5.77,7s5.77-1.92,5.77-7V198c0-5.06-2.23-7-5.77-7s-5.77,1.92-5.77,7Z" style="fill: rgb(38, 50, 56); transform-origin: 424.48px 217.08px;" id="elhy6rrmhmhie" class="animable"></path><path d="M330.06,269.59c3.28,0,4.57,1.57,4.57,4.66v1c0,2.23-.63,3.61-2.47,4.18,2,.57,2.83,2.19,2.83,4.51v1.77c0,3.15-1.53,4.93-4.81,4.93h-4.84v-21Zm-.57,8.93c1.86,0,2.82-.6,2.82-2.8v-1.23c0-1.86-.63-2.76-2.31-2.76h-2.31v6.79Zm.69,10c1.71,0,2.49-.9,2.49-2.85v-1.86c0-2.35-.93-3.13-2.94-3.13h-2v7.84Z" style="fill: rgb(38, 50, 56); transform-origin: 330.165px 280.115px;" id="el5steyp1e8u9" class="animable"></path><path d="M339.49,286.39l-.81,4.24h-2.16l4-21h3.39l4,21h-2.35l-.81-4.24Zm.3-2h4.69l-2.37-12.14Z" style="fill: rgb(38, 50, 56); transform-origin: 342.215px 280.13px;" id="elrqhxujxftro" class="animable"></path><path d="M354.73,269.59c3.27,0,4.77,2,4.77,5.23v10.61c0,3.21-1.5,5.2-4.77,5.2H349.8v-21Zm0,18.9c1.68,0,2.49-1.05,2.49-3V274.7c0-1.92-.81-3-2.52-3h-2.53v16.76Z" style="fill: rgb(38, 50, 56); transform-origin: 354.65px 280.11px;" id="elg6s6ztjh7zq" class="animable"></path><path d="M371,269.59c3.3,0,4.68,1.69,4.68,4.81v1.71c0,2.32-.81,3.76-2.61,4.33,1.92.57,2.64,2.13,2.64,4.39v3.27a5.3,5.3,0,0,0,.43,2.53H373.8a5.55,5.55,0,0,1-.39-2.56v-3.3c0-2.38-1.11-3.13-3.06-3.13h-1.66v9h-2.34v-21Zm-.6,9.92c1.86,0,3-.6,3-2.88v-2c0-1.89-.69-2.88-2.43-2.88h-2.29v7.78Z" style="fill: rgb(38, 50, 56); transform-origin: 371.245px 280.115px;" id="el2j65zupec6k" class="animable"></path><path d="M385.67,278.91V281h-5.14v7.48h6.31v2.14h-8.65v-21h8.65v2.14h-6.31v7.18Z" style="fill: rgb(38, 50, 56); transform-origin: 382.515px 280.12px;" id="elfpafpmhehmu" class="animable"></path><path d="M398.47,274.67v10.88a6,6,0,0,1-.82,3.27c.24.51.64.66,1.3.66h.3v2.08h-.39a2.79,2.79,0,0,1-2.68-1.35,5,5,0,0,1-2.55.63c-3.22,0-4.81-2.11-4.81-5.29V274.67c0-3.21,1.59-5.29,4.81-5.29S398.47,271.46,398.47,274.67Zm-7.34-.12v11.12c0,1.92.82,3,2.5,3s2.49-1.11,2.49-3V274.55c0-1.89-.78-3-2.49-3S391.13,272.66,391.13,274.55Z" style="fill: rgb(38, 50, 56); transform-origin: 394.035px 280.477px;" id="elwujo2sb3jt7" class="animable"></path><path d="M403.3,285.67c0,1.89.75,3,2.47,3s2.43-1.14,2.43-3V269.59h2.19v16c0,3.18-1.47,5.32-4.71,5.32s-4.69-2.14-4.69-5.32v-16h2.31Z" style="fill: rgb(38, 50, 56); transform-origin: 405.69px 280.25px;" id="eljba1ir92j" class="animable"></path><path d="M420.19,278.91V281h-5.14v7.48h6.31v2.14h-8.65v-21h8.65v2.14h-6.31v7.18Z" style="fill: rgb(38, 50, 56); transform-origin: 417.035px 280.12px;" id="eluvoyc8ewfm" class="animable"></path><path d="M432.62,274.64v.57H430.4v-.69c0-1.89-.72-3-2.4-3s-2.41,1.11-2.41,3c0,4.72,7.06,5.17,7.06,11.09,0,3.18-1.53,5.26-4.74,5.26s-4.72-2.08-4.72-5.26v-1.2h2.19v1.32c0,1.89.78,3,2.47,3s2.46-1.11,2.46-3c0-4.69-7-5.14-7-11.06,0-3.24,1.5-5.26,4.66-5.26S432.62,271.46,432.62,274.64Z" style="fill: rgb(38, 50, 56); transform-origin: 427.92px 280.14px;" id="eld8qdnwfer06" class="animable"></path><path d="M437.76,290.63v-18.9h-3.88v-2.14H444v2.14H440.1v18.9Z" style="fill: rgb(38, 50, 56); transform-origin: 438.94px 280.11px;" id="ell5fd0iv05a9" class="animable"></path></g><g id="freepik--Clock--inject-74" class="animable" style="transform-origin: 114.73px 163.35px;"><circle cx="114.73" cy="163.35" r="31.91" style="fill: none; stroke: rgb(38, 50, 56); stroke-linecap: round; stroke-linejoin: round; stroke-width: 1.23197px; transform-origin: 114.73px 163.35px;" id="elpen5ggr447" class="animable"></circle><g id="elo2z3sfdztnc"><circle cx="114.73" cy="163.35" r="26.44" style="fill: none; stroke: rgb(38, 50, 56); stroke-linecap: round; stroke-linejoin: round; stroke-width: 1.23197px; transform-origin: 114.73px 163.35px; transform: rotate(-8.96deg);" class="animable"></circle></g><polyline points="97.86 163.35 114.73 163.35 114.73 187.68" style="fill: none; stroke: rgb(38, 50, 56); stroke-linecap: round; stroke-linejoin: round; stroke-width: 1.23197px; transform-origin: 106.295px 175.515px;" id="el43uhq14n4ey" class="animable"></polyline></g><g id="freepik--Character--inject-74" class="animable" style="transform-origin: 210.332px 287.677px;"><path d="M261.75,406.94a5.35,5.35,0,1,1,5.35,5.35A5.34,5.34,0,0,1,261.75,406.94Z" style="fill: rgb(38, 50, 56); stroke: rgb(38, 50, 56); stroke-linecap: round; stroke-linejoin: round; stroke-width: 1.23197px; transform-origin: 267.1px 406.94px;" id="elu0f4le0li2c" class="animable"></path><path d="M264.42,406.94a2.68,2.68,0,1,1,2.68,2.67A2.68,2.68,0,0,1,264.42,406.94Z" style="fill: rgb(255, 255, 255); stroke: rgb(38, 50, 56); stroke-linecap: round; stroke-linejoin: round; stroke-width: 1.23197px; transform-origin: 267.1px 406.93px;" id="elc6vs92b3x7n" class="animable"></path><path d="M204.44,406.94a5.35,5.35,0,1,1,5.35,5.35A5.35,5.35,0,0,1,204.44,406.94Z" style="fill: rgb(38, 50, 56); stroke: rgb(38, 50, 56); stroke-linecap: round; stroke-linejoin: round; stroke-width: 1.23197px; transform-origin: 209.79px 406.94px;" id="eljn1u4flq5i" class="animable"></path><path d="M207.12,406.94a2.68,2.68,0,1,1,2.67,2.67A2.68,2.68,0,0,1,207.12,406.94Z" style="fill: rgb(255, 255, 255); stroke: rgb(38, 50, 56); stroke-linecap: round; stroke-linejoin: round; stroke-width: 1.23197px; transform-origin: 209.8px 406.93px;" id="elrf4ic0sirbo" class="animable"></path><path d="M185.72,406.94a5.35,5.35,0,1,1,5.35,5.35A5.34,5.34,0,0,1,185.72,406.94Z" style="fill: rgb(38, 50, 56); stroke: rgb(38, 50, 56); stroke-linecap: round; stroke-linejoin: round; stroke-width: 1.23197px; transform-origin: 191.07px 406.94px;" id="el184mr797wx1" class="animable"></path><path d="M188.39,406.94a2.68,2.68,0,1,1,2.68,2.67A2.68,2.68,0,0,1,188.39,406.94Z" style="fill: rgb(255, 255, 255); stroke: rgb(38, 50, 56); stroke-linecap: round; stroke-linejoin: round; stroke-width: 1.23197px; transform-origin: 191.07px 406.93px;" id="elbo1ob9yx59v" class="animable"></path><g id="elm22dgp6wwlj"><path d="M218.09,342.89H229.4a0,0,0,0,1,0,0v57.9a0,0,0,0,1,0,0H218.12a0,0,0,0,1,0,0v-57.9A0,0,0,0,1,218.09,342.89Z" style="fill: rgb(38, 50, 56); stroke: rgb(38, 50, 56); stroke-linecap: round; stroke-linejoin: round; stroke-width: 1.23197px; transform-origin: 223.745px 371.84px; transform: rotate(180deg);" class="animable"></path></g><g id="eleldaa2bvyqr"><rect x="215.07" y="359.91" width="17.34" height="40.91" style="fill: rgb(38, 50, 56); stroke: rgb(38, 50, 56); stroke-linecap: round; stroke-linejoin: round; stroke-width: 1.23197px; transform-origin: 223.74px 380.365px; transform: rotate(180deg);" class="animable"></rect></g><g id="elezkqtsm6myf"><path d="M235.33,302h14.48a0,0,0,0,1,0,0v31.14a0,0,0,0,1,0,0H235.3a0,0,0,0,1,0,0V302.05A0,0,0,0,1,235.33,302Z" style="fill: rgb(38, 50, 56); stroke: rgb(38, 50, 56); stroke-linecap: round; stroke-linejoin: round; stroke-width: 1.23197px; transform-origin: 242.555px 317.57px; transform: rotate(180deg);" class="animable"></path></g><path d="M213.92,302h56.66a9.93,9.93,0,0,0,9.92-10.18l-1.36-55.31a9.93,9.93,0,0,0-9.93-9.68H222.43a9.93,9.93,0,0,0-9.82,8.42l-8.5,55.31A9.93,9.93,0,0,0,213.92,302Z" style="fill: rgb(255, 114, 94); stroke: rgb(38, 50, 56); stroke-linecap: round; stroke-linejoin: round; stroke-width: 1.23197px; transform-origin: 242.249px 264.415px;" id="ellcvttjifu9q" class="animable"></path><line x1="232.44" y1="344.91" x2="257.29" y2="361.28" style="fill: none; stroke: rgb(38, 50, 56); stroke-linecap: round; stroke-linejoin: round; stroke-width: 1.23197px; transform-origin: 244.865px 353.095px;" id="elxbnwlhbyr79" class="animable"></line><path d="M258.23,358.8l4.24,2.85a2.79,2.79,0,0,1,.39,4.29l-.3.28a2.77,2.77,0,0,1-3.7.16L255,363.17a2.72,2.72,0,0,1-.23-4h0A2.72,2.72,0,0,1,258.23,358.8Z" style="fill: rgb(38, 50, 56); stroke: rgb(38, 50, 56); stroke-linecap: round; stroke-linejoin: round; stroke-width: 1.23197px; transform-origin: 258.845px 362.678px;" id="el9uk8irj7kf7" class="animable"></path><path d="M177.67,347.74h92.15a8.89,8.89,0,0,0,8.89-8.89h0a8.89,8.89,0,0,0-8.89-8.89H177.67a8.89,8.89,0,0,0-8.89,8.89h0A8.89,8.89,0,0,0,177.67,347.74Z" style="fill: rgb(255, 114, 94); stroke: rgb(38, 50, 56); stroke-linecap: round; stroke-linejoin: round; stroke-width: 1.23197px; transform-origin: 223.745px 338.85px;" id="elfobv91by73o" class="animable"></path><path d="M168.84,337.77A9.14,9.14,0,0,1,178,330H225.8a9.14,9.14,0,0,1,9.2,7.81,8.9,8.9,0,0,1-8.83,10h-48.5A8.9,8.9,0,0,1,168.84,337.77Z" style="fill: rgb(255, 114, 94); stroke: rgb(38, 50, 56); stroke-linecap: round; stroke-linejoin: round; stroke-width: 1.23197px; transform-origin: 201.917px 338.904px;" id="eljq40pwewd69" class="animable"></path><path d="M184,404.05h88.48a4.85,4.85,0,0,0-4.85-4.84H188.84a4.84,4.84,0,0,0-4.84,4.84Z" style="fill: rgb(38, 50, 56); stroke: rgb(38, 50, 56); stroke-linecap: round; stroke-linejoin: round; stroke-width: 1.23197px; transform-origin: 228.24px 401.63px;" id="el6v7zjbnrmpp" class="animable"></path><path d="M199.75,404.05h28.8v-4.84h-24a4.85,4.85,0,0,0-4.85,4.84Z" style="fill: rgb(38, 50, 56); stroke: rgb(38, 50, 56); stroke-linecap: round; stroke-linejoin: round; stroke-width: 1.23197px; transform-origin: 214.125px 401.63px;" id="elhnex5jux5d" class="animable"></path><path d="M193.57,292.78l-6.38,10.51s-22.31,2.24-35.06,5.1-15.3,16.9-15.94,19.77c-.71,3.2-4.66,70.09-3.39,70.41s10.84,1.27,10.84,1.27,16.14-65,20.92-65.95,75.54.64,86.06-5.1,13.07-22.31,7-33.78S193.57,292.78,193.57,292.78Z" style="fill: rgb(38, 50, 56); stroke: rgb(38, 50, 56); stroke-linecap: round; stroke-linejoin: round; stroke-width: 1.23197px; transform-origin: 196.702px 344.551px;" id="elze20gsstppo" class="animable"></path><path d="M236.92,305.53s-29.65,0-44,1.27-23.27,12.11-22.63,21.68,12.23,72.32,12.23,72.32l11.15-1,6-67.24s10,6.48,48.79-3.48" style="fill: rgb(38, 50, 56); stroke: rgb(38, 50, 56); stroke-linecap: round; stroke-linejoin: round; stroke-width: 1.23197px; transform-origin: 209.359px 353.165px;" id="elwhrir51uevq" class="animable"></path><path d="M306.72,203.21c-1-.64-4.14,7.65-4.14,7.65a56.63,56.63,0,0,0-6.06,0c-3.5.32-6.37,5.1-6.37,8.29s-14.67,28.68-14.67,28.68-12.75-21-17.21-24.54-21-6.69-21-6.69a66,66,0,0,0-20.43,0s-16.57,3.18-21,6.69-17.22,24.54-17.22,24.54-14.66-25.5-14.66-28.68-2.87-8-6.37-8.29a56.59,56.59,0,0,0-6.06,0s-3.19-8.29-4.14-7.65.63,10.84,1.59,13.07,8.93,3.82,8.93,3.82,9.88,37.61,13.06,42.71,6.7,11.48,15.3,7.65,19.45-16.25,19.45-16.25l18.19.28v0l1.37,0,1.15,0v0l22-.28s10.84,12.43,19.44,16.25,12.12-2.55,15.3-7.65S296.2,220.1,296.2,220.1s8-1.59,8.93-3.82S307.68,203.85,306.72,203.21Z" style="fill: rgb(156, 156, 156); stroke: rgb(38, 50, 56); stroke-linecap: round; stroke-linejoin: round; stroke-width: 1.23197px; transform-origin: 227.055px 237.402px;" id="elf75bvbcq8m" class="animable"></path><path d="M280.64,238.66c-2.81,5.1-5.16,9.17-5.16,9.17s-12.75-21-17.21-24.54-21-6.69-21-6.69a66,66,0,0,0-20.43,0s-16.57,3.18-21,6.69-17.22,24.54-17.22,24.54-2.54-4.41-5.5-9.8l-8.77,5.34c2.56,8.79,5.23,17.22,6.62,19.44,3.19,5.1,6.7,11.48,15.3,7.65s19.45-16.25,19.45-16.25l18.19.28v0l1.37,0,1.15,0v0l22-.28s10.84,12.43,19.44,16.25,12.12-2.55,15.3-7.65c1.4-2.23,4.08-10.69,6.65-19.51Z" style="fill: rgb(255, 255, 255); transform-origin: 227.085px 243.717px;" id="el0qnzw204nyqa" class="animable"></path><g style="clip-path: url(&quot;#freepik--clip-path--inject-74&quot;); transform-origin: 227.16px 250.134px;" id="el0k4f3i5k4wlh" class="animable"><path d="M273,253.73c-.17-2.09-.33-4.07.52-5.34a16.5,16.5,0,0,1,1.3-1.7l-1.26-2a17.1,17.1,0,0,0-2,2.45c-1.29,1.94-1.1,4.41-.9,6.81.16,2.09.32,4.06-.53,5.34-.73,1.09-1.44,1-3.39.6a10.22,10.22,0,0,0-5.66,0,5.27,5.27,0,0,0-3.3,3.66c.63.55,1.28,1.1,1.94,1.63.27-1.43.87-2.7,2.09-3.1a8.15,8.15,0,0,1,4.47.05c1.94.4,4.15.86,5.77-1.58C273.36,258.6,273.16,256.13,273,253.73Z" style="fill: rgb(255, 114, 94); transform-origin: 266.3px 254.935px;" id="el5poup6hv6yd" class="animable"></path><path d="M248.39,254.21l.76.85A10.44,10.44,0,0,0,251.1,254a5,5,0,0,1,2.13,0,18.11,18.11,0,0,0,7.11-.47c3.87-1.11,4-5.31,4.14-9,.07-2.06.14-4.2.85-5.49a3.09,3.09,0,0,1,3.62-1.52c-.51-.79-1-1.58-1.57-2.37a5,5,0,0,0-4.08,2.78c-1,1.77-1.05,4.19-1.13,6.52-.13,3.87-.37,6.27-2.46,6.86a15.8,15.8,0,0,1-6.27.4c-1.51-.13-2.81-.25-3.79.53a26.67,26.67,0,0,1-4.73,2Z" style="fill: rgb(255, 114, 94); transform-origin: 256.935px 245.105px;" id="elq1vwuku12lk" class="animable"></path><path d="M193.57,259.88a10.22,10.22,0,0,0-5.66,0c-1.95.4-2.66.49-3.39-.6-.85-1.28-.69-3.25-.52-5.34.19-2.4.38-4.87-.91-6.81a15.93,15.93,0,0,0-2.33-2.83l-1.26,2a14.43,14.43,0,0,1,1.67,2.09c.85,1.27.69,3.25.52,5.34-.19,2.4-.39,4.87.91,6.81,1.62,2.44,3.83,2,5.77,1.58a8.15,8.15,0,0,1,4.47-.05,3.38,3.38,0,0,1,2,2.68c.65-.53,1.28-1.07,1.9-1.62A5.15,5.15,0,0,0,193.57,259.88Z" style="fill: rgb(255, 114, 94); transform-origin: 188.12px 254.525px;" id="elw8ktqp7t92" class="animable"></path><path d="M201.23,251.68a15.85,15.85,0,0,1-6.28-.4c-2.09-.59-2.33-3-2.46-6.86-.08-2.33-.16-4.75-1.13-6.52a5.07,5.07,0,0,0-4.68-2.81c-.58.87-1.15,1.74-1.71,2.6,1.17-.4,3.25-.73,4.36,1.32.71,1.29.78,3.43.85,5.49.13,3.7.28,7.9,4.14,9a18.11,18.11,0,0,0,7.11.47,5,5,0,0,1,2.13,0,8.23,8.23,0,0,0,1.51.85l.59-.65,4.14.06a27.23,27.23,0,0,1-4.79-2.06C204,251.43,202.73,251.55,201.23,251.68Z" style="fill: rgb(255, 114, 94); transform-origin: 197.385px 244.954px;" id="elvxxr1n7jazj" class="animable"></path><g id="eluuiwuxmaoj"><g style="opacity: 0.5; transform-origin: 227.16px 250.134px;" class="animable"><path d="M273,253.73c-.17-2.09-.33-4.07.52-5.34a16.5,16.5,0,0,1,1.3-1.7l-1.26-2a17.1,17.1,0,0,0-2,2.45c-1.29,1.94-1.1,4.41-.9,6.81.16,2.09.32,4.06-.53,5.34-.73,1.09-1.44,1-3.39.6a10.22,10.22,0,0,0-5.66,0,5.27,5.27,0,0,0-3.3,3.66c.63.55,1.28,1.1,1.94,1.63.27-1.43.87-2.7,2.09-3.1a8.15,8.15,0,0,1,4.47.05c1.94.4,4.15.86,5.77-1.58C273.36,258.6,273.16,256.13,273,253.73Z" style="fill: rgb(255, 255, 255); transform-origin: 266.3px 254.935px;" id="elqrb47820hr" class="animable"></path><path d="M248.39,254.21l.76.85A10.44,10.44,0,0,0,251.1,254a5,5,0,0,1,2.13,0,18.11,18.11,0,0,0,7.11-.47c3.87-1.11,4-5.31,4.14-9,.07-2.06.14-4.2.85-5.49a3.09,3.09,0,0,1,3.62-1.52c-.51-.79-1-1.58-1.57-2.37a5,5,0,0,0-4.08,2.78c-1,1.77-1.05,4.19-1.13,6.52-.13,3.87-.37,6.27-2.46,6.86a15.8,15.8,0,0,1-6.27.4c-1.51-.13-2.81-.25-3.79.53a26.67,26.67,0,0,1-4.73,2Z" style="fill: rgb(255, 255, 255); transform-origin: 256.935px 245.105px;" id="elhats87cv34k" class="animable"></path><path d="M193.57,259.88a10.22,10.22,0,0,0-5.66,0c-1.95.4-2.66.49-3.39-.6-.85-1.28-.69-3.25-.52-5.34.19-2.4.38-4.87-.91-6.81a15.93,15.93,0,0,0-2.33-2.83l-1.26,2a14.43,14.43,0,0,1,1.67,2.09c.85,1.27.69,3.25.52,5.34-.19,2.4-.39,4.87.91,6.81,1.62,2.44,3.83,2,5.77,1.58a8.15,8.15,0,0,1,4.47-.05,3.38,3.38,0,0,1,2,2.68c.65-.53,1.28-1.07,1.9-1.62A5.15,5.15,0,0,0,193.57,259.88Z" style="fill: rgb(255, 255, 255); transform-origin: 188.12px 254.525px;" id="elzcmfh79qjtf" class="animable"></path><path d="M201.23,251.68a15.85,15.85,0,0,1-6.28-.4c-2.09-.59-2.33-3-2.46-6.86-.08-2.33-.16-4.75-1.13-6.52a5.07,5.07,0,0,0-4.68-2.81c-.58.87-1.15,1.74-1.71,2.6,1.17-.4,3.25-.73,4.36,1.32.71,1.29.78,3.43.85,5.49.13,3.7.28,7.9,4.14,9a18.11,18.11,0,0,0,7.11.47,5,5,0,0,1,2.13,0,8.23,8.23,0,0,0,1.51.85l.59-.65,4.14.06a27.23,27.23,0,0,1-4.79-2.06C204,251.43,202.73,251.55,201.23,251.68Z" style="fill: rgb(255, 255, 255); transform-origin: 197.385px 244.954px;" id="ely8jh4okhoeo" class="animable"></path></g></g></g><path d="M280.64,238.66c-2.81,5.1-5.16,9.17-5.16,9.17s-12.75-21-17.21-24.54-21-6.69-21-6.69a66,66,0,0,0-20.43,0s-16.57,3.18-21,6.69-17.22,24.54-17.22,24.54-2.54-4.41-5.5-9.8l-8.77,5.34c2.56,8.79,5.23,17.22,6.62,19.44,3.19,5.1,6.7,11.48,15.3,7.65s19.45-16.25,19.45-16.25l18.19.28v0l1.37,0,1.15,0v0l22-.28s10.84,12.43,19.44,16.25,12.12-2.55,15.3-7.65c1.4-2.23,4.08-10.69,6.65-19.51Z" style="fill: none; stroke: rgb(38, 50, 56); stroke-linecap: round; stroke-linejoin: round; stroke-width: 1.23197px; transform-origin: 227.085px 243.717px;" id="elebmu7beptm7" class="animable"></path><path d="M199.62,238.91s-4.14,8.92-3.18,14.66a60.69,60.69,0,0,1,.95,7s-6,16.58-7,22.63a13.69,13.69,0,0,0,5.42,13.39c3.51,2.55,51.32,3.19,58.65,1.28s6.69-8.93,6.37-15.3S258,262.5,258,262.5s1-19.45-3.18-24.23" style="fill: rgb(255, 255, 255); transform-origin: 225.596px 268.625px;" id="elsassolpwxgb" class="animable"></path><g style="clip-path: url(&quot;#freepik--clip-path-2--inject-74&quot;); transform-origin: 228.424px 250.635px;" id="eltl4pmpn1kkh" class="animable"><path d="M236.21,251.72a6.58,6.58,0,0,1-4.47-2.05c-4.35-4-7.25-4.66-10.33-2.42L220,248.33c-3.19,2.44-6.21,4.74-10.93,1.83-1.08-.66-2.06-1.37-2.92-2-3.17-2.3-4.55-3.16-6.82-1.3-1.69,1.38-3,2.2-4.5,2-1.91-.23-3.25-2-5.91-5.56l-.18-.24a5,5,0,0,0-3.5-2.27,6,6,0,0,0-4.05,1.68,1.15,1.15,0,0,1-1.63,0,1.14,1.14,0,0,1,0-1.63,8.27,8.27,0,0,1,5.84-2.35,7.13,7.13,0,0,1,5.19,3.18l.17.24c2.06,2.74,3.41,4.55,4.35,4.66.53.06,1.37-.39,2.76-1.52,3.73-3.06,6.6-1,9.64,1.22.87.63,1.77,1.28,2.77,1.9,3.37,2.08,5.23.66,8.32-1.69.47-.37,1-.74,1.48-1.11,5.12-3.73,9.57-.79,13.25,2.58,2.75,2.52,4.49,1.41,8.14-1.34.7-.52,1.43-1.08,2.22-1.62l.36-.25c4.71-3.27,5.23-3,11.6.53l1.71.94c2.21,1.22,3.57,2,4.2,1.93s1.09-.69,2.3-2.06c.49-.57,1.08-1.23,1.8-2,5.16-5.53,6.85-5.16,11-3.27l.33.15a1.15,1.15,0,1,1-.95,2.1l-.33-.15c-3.44-1.57-4.06-1.85-8.36,2.75-.69.75-1.26,1.39-1.75,1.95-3.32,3.77-4,3.57-9.35.62l-1.7-.94c-5.64-3.1-5.64-3.1-9.17-.65l-.37.25c-.76.53-1.46,1.06-2.14,1.57C240.64,250.12,238.53,251.72,236.21,251.72Zm6.62,7.84c.68-.51,1.38-1.05,2.14-1.57l.37-.25c3.53-2.46,3.53-2.45,9.17.65l1.7.94c5.33,2.95,6,3.15,9.35-.62.49-.56,1.06-1.21,1.75-1.95,4.3-4.61,4.92-4.32,8.36-2.75l.33.15a1.15,1.15,0,1,0,.95-2.1l-.33-.15c-4.13-1.89-5.83-2.26-11,3.27-.72.77-1.31,1.43-1.8,2-1.21,1.37-1.81,2-2.3,2.06s-2-.71-4.2-1.93l-1.71-.94c-6.37-3.51-6.89-3.8-11.6-.53l-.36.25c-.79.54-1.52,1.09-2.22,1.62-3.65,2.75-5.39,3.86-8.14,1.34-3.68-3.37-8.13-6.32-13.25-2.59-.52.38-1,.75-1.48,1.12-3.09,2.35-4.95,3.77-8.32,1.69-1-.62-1.9-1.27-2.77-1.9-3-2.2-5.91-4.28-9.64-1.22-1.39,1.13-2.2,1.59-2.76,1.52-.94-.11-2.29-1.92-4.35-4.66l-.17-.24a7.13,7.13,0,0,0-5.19-3.18,8.27,8.27,0,0,0-5.84,2.35,1.14,1.14,0,0,0,0,1.63,1.15,1.15,0,0,0,1.63,0,6,6,0,0,1,4.05-1.68,4.92,4.92,0,0,1,3.5,2.27l.18.24c2.66,3.55,4,5.33,5.91,5.56,1.46.18,2.81-.64,4.5-2,2.27-1.85,3.65-1,6.82,1.31.86.63,1.84,1.34,2.92,2,4.72,2.91,7.74.61,10.93-1.83l1.44-1.08c3.08-2.24,6-1.56,10.33,2.42a6.56,6.56,0,0,0,4.47,2C238.53,262.79,240.64,261.2,242.83,259.56Z" style="fill: rgb(255, 114, 94); transform-origin: 228.424px 250.635px;" id="elzfd70jguzzc" class="animable"></path><g id="eluwchxsi8lvk"><path d="M236.21,251.72a6.58,6.58,0,0,1-4.47-2.05c-4.35-4-7.25-4.66-10.33-2.42L220,248.33c-3.19,2.44-6.21,4.74-10.93,1.83-1.08-.66-2.06-1.37-2.92-2-3.17-2.3-4.55-3.16-6.82-1.3-1.69,1.38-3,2.2-4.5,2-1.91-.23-3.25-2-5.91-5.56l-.18-.24a5,5,0,0,0-3.5-2.27,6,6,0,0,0-4.05,1.68,1.15,1.15,0,0,1-1.63,0,1.14,1.14,0,0,1,0-1.63,8.27,8.27,0,0,1,5.84-2.35,7.13,7.13,0,0,1,5.19,3.18l.17.24c2.06,2.74,3.41,4.55,4.35,4.66.53.06,1.37-.39,2.76-1.52,3.73-3.06,6.6-1,9.64,1.22.87.63,1.77,1.28,2.77,1.9,3.37,2.08,5.23.66,8.32-1.69.47-.37,1-.74,1.48-1.11,5.12-3.73,9.57-.79,13.25,2.58,2.75,2.52,4.49,1.41,8.14-1.34.7-.52,1.43-1.08,2.22-1.62l.36-.25c4.71-3.27,5.23-3,11.6.53l1.71.94c2.21,1.22,3.57,2,4.2,1.93s1.09-.69,2.3-2.06c.49-.57,1.08-1.23,1.8-2,5.16-5.53,6.85-5.16,11-3.27l.33.15a1.15,1.15,0,1,1-.95,2.1l-.33-.15c-3.44-1.57-4.06-1.85-8.36,2.75-.69.75-1.26,1.39-1.75,1.95-3.32,3.77-4,3.57-9.35.62l-1.7-.94c-5.64-3.1-5.64-3.1-9.17-.65l-.37.25c-.76.53-1.46,1.06-2.14,1.57C240.64,250.12,238.53,251.72,236.21,251.72Zm6.62,7.84c.68-.51,1.38-1.05,2.14-1.57l.37-.25c3.53-2.46,3.53-2.45,9.17.65l1.7.94c5.33,2.95,6,3.15,9.35-.62.49-.56,1.06-1.21,1.75-1.95,4.3-4.61,4.92-4.32,8.36-2.75l.33.15a1.15,1.15,0,1,0,.95-2.1l-.33-.15c-4.13-1.89-5.83-2.26-11,3.27-.72.77-1.31,1.43-1.8,2-1.21,1.37-1.81,2-2.3,2.06s-2-.71-4.2-1.93l-1.71-.94c-6.37-3.51-6.89-3.8-11.6-.53l-.36.25c-.79.54-1.52,1.09-2.22,1.62-3.65,2.75-5.39,3.86-8.14,1.34-3.68-3.37-8.13-6.32-13.25-2.59-.52.38-1,.75-1.48,1.12-3.09,2.35-4.95,3.77-8.32,1.69-1-.62-1.9-1.27-2.77-1.9-3-2.2-5.91-4.28-9.64-1.22-1.39,1.13-2.2,1.59-2.76,1.52-.94-.11-2.29-1.92-4.35-4.66l-.17-.24a7.13,7.13,0,0,0-5.19-3.18,8.27,8.27,0,0,0-5.84,2.35,1.14,1.14,0,0,0,0,1.63,1.15,1.15,0,0,0,1.63,0,6,6,0,0,1,4.05-1.68,4.92,4.92,0,0,1,3.5,2.27l.18.24c2.66,3.55,4,5.33,5.91,5.56,1.46.18,2.81-.64,4.5-2,2.27-1.85,3.65-1,6.82,1.31.86.63,1.84,1.34,2.92,2,4.72,2.91,7.74.61,10.93-1.83l1.44-1.08c3.08-2.24,6-1.56,10.33,2.42a6.56,6.56,0,0,0,4.47,2C238.53,262.79,240.64,261.2,242.83,259.56Z" style="fill: rgb(255, 255, 255); opacity: 0.5; transform-origin: 228.424px 250.635px;" class="animable"></path></g></g><path d="M199.62,238.91s-4.14,8.92-3.18,14.66a60.69,60.69,0,0,1,.95,7s-6,16.58-7,22.63a13.69,13.69,0,0,0,5.42,13.39c3.51,2.55,51.32,3.19,58.65,1.28s6.69-8.93,6.37-15.3S258,262.5,258,262.5s1-19.45-3.18-24.23" style="fill: none; stroke: rgb(38, 50, 56); stroke-linecap: round; stroke-linejoin: round; stroke-width: 1.23197px; transform-origin: 225.596px 268.625px;" id="elzanmxbmkr4j" class="animable"></path><path d="M216.81,216.6l-1.36.27a9,9,0,0,0-.21,1.8c0,6.07,6.5,11,14.51,11s14.5-4.93,14.5-11c0-.18,0-.34,0-.52-3.87-1-7-1.55-7-1.55A66,66,0,0,0,216.81,216.6Z" style="fill: rgb(255, 114, 94); stroke: rgb(38, 50, 56); stroke-linecap: round; stroke-linejoin: round; stroke-width: 1.23197px; transform-origin: 229.745px 222.737px;" id="elxc2jc4cqt3" class="animable"></path><path d="M220,210.54s-1,7.65,0,10.2,7,7.33,13.07,5.42a10,10,0,0,0,7-9.24V208l-19.76.64Z" style="fill: rgb(156, 156, 156); stroke: rgb(38, 50, 56); stroke-linecap: round; stroke-linejoin: round; stroke-width: 1.23197px; transform-origin: 229.813px 217.3px;" id="eltqmrxeaw75" class="animable"></path><ellipse cx="230.22" cy="185.2" rx="22.63" ry="22.15" style="fill: rgb(38, 50, 56); stroke: rgb(38, 50, 56); stroke-linecap: round; stroke-linejoin: round; stroke-width: 1.23197px; transform-origin: 230.22px 185.2px;" id="elouxt9pe7dwj" class="animable"></ellipse><path d="M215.88,192.69s-1.91-4.46-3.19-.32,1.6,9.25,3.51,9.56S215.88,192.69,215.88,192.69Z" style="fill: rgb(156, 156, 156); stroke: rgb(38, 50, 56); stroke-linecap: round; stroke-linejoin: round; stroke-width: 1.23197px; transform-origin: 214.673px 196.273px;" id="el2iex1tmo2y7" class="animable"></path><path d="M243.43,192.69s1.91-4.46,3.19-.32-1.6,9.25-3.51,9.56S243.43,192.69,243.43,192.69Z" style="fill: rgb(156, 156, 156); stroke: rgb(38, 50, 56); stroke-linecap: round; stroke-linejoin: round; stroke-width: 1.23197px; transform-origin: 244.637px 196.273px;" id="eluobhie01gms" class="animable"></path><path d="M239.64,177.8a7.78,7.78,0,0,0-6.07-1.47,24.26,24.26,0,0,1-5.9.42c-3.18-.31-5.73-1.59-8.28,1s-3.83,14.34-3.83,20.4S220,212.77,223.21,215s12.11,1.92,14.34,0,5.74-8.92,6.38-14.66-.64-16.89-1.91-19.76A7.8,7.8,0,0,0,239.64,177.8Z" style="fill: rgb(156, 156, 156); stroke: rgb(38, 50, 56); stroke-linecap: round; stroke-linejoin: round; stroke-width: 1.23197px; transform-origin: 229.83px 196.359px;" id="elurn4a9zt1x8" class="animable"></path><ellipse cx="225.46" cy="191.69" rx="1.19" ry="1.95" style="fill: rgb(38, 50, 56); transform-origin: 225.46px 191.69px;" id="elvms0k553dh" class="animable"></ellipse><path d="M236.05,191.69c0,1.08-.53,1.95-1.19,1.95s-1.19-.87-1.19-1.95.54-1.95,1.19-1.95S236.05,190.62,236.05,191.69Z" style="fill: rgb(38, 50, 56); transform-origin: 234.86px 191.69px;" id="el2vyxeuvnrxv" class="animable"></path><path d="M231.62,202.72c0,1.07-.53,1.94-1.19,1.94s-1.19-.87-1.19-1.94.53-1.95,1.19-1.95S231.62,201.64,231.62,202.72Z" style="fill: rgb(38, 50, 56); transform-origin: 230.43px 202.715px;" id="elofbezqv9zx" class="animable"></path><path d="M228.05,194.07c-2,3.13,1.8,5.14,4.33,3.24,1.73-1.3,0-3.24,0-3.24" style="fill: rgb(156, 156, 156); stroke: rgb(38, 50, 56); stroke-linecap: round; stroke-linejoin: round; stroke-width: 1.23197px; transform-origin: 230.319px 196.059px;" id="elw9xuihfgjif" class="animable"></path><path d="M221.35,187.37s3.24-3,6.49-1.52" style="fill: none; stroke: rgb(38, 50, 56); stroke-linecap: round; stroke-linejoin: round; stroke-width: 1.23197px; transform-origin: 224.595px 186.405px;" id="eliabemzeldv" class="animable"></path><path d="M233.24,186.07s3-1.95,5.84,1.73" style="fill: none; stroke: rgb(38, 50, 56); stroke-linecap: round; stroke-linejoin: round; stroke-width: 1.23197px; transform-origin: 236.16px 186.677px;" id="elyaakbfmv2z" class="animable"></path><path d="M132.8,398.57s-19.15,3.75-19.15,5.7,24.4,7.49,27,7.81,3-12.24,3-12.24Z" style="fill: rgb(255, 255, 255); stroke: rgb(38, 50, 56); stroke-linecap: round; stroke-linejoin: round; stroke-width: 1.23197px; transform-origin: 128.65px 405.328px;" id="el4cf9jazjlpd" class="animable"></path><path d="M142.25,410.21l-27.32-7c-.8.37-1.28.73-1.28,1,0,2,24.4,7.49,27,7.81C141.32,412.16,141.84,411.39,142.25,410.21Z" style="fill: rgb(255, 114, 94); stroke: rgb(38, 50, 56); stroke-linecap: round; stroke-linejoin: round; stroke-width: 1.23197px; transform-origin: 127.95px 407.623px;" id="elt46qzprf5j" class="animable"></path><path d="M182.53,400.8s-19.43,8.35-18.13,10.31,26.68,1,29.28.65,0-11.92,0-11.92Z" style="fill: rgb(255, 255, 255); stroke: rgb(38, 50, 56); stroke-linecap: round; stroke-linejoin: round; stroke-width: 1.23197px; transform-origin: 179.587px 406.072px;" id="elvm1hquq6cyp" class="animable"></path><path d="M165,409.88c-.57.51-.83.94-.64,1.23,1.3,1.95,26.68,1,29.28.65.63-.08.95-.82,1.08-1.88Z" style="fill: rgb(255, 114, 94); stroke: rgb(38, 50, 56); stroke-linecap: round; stroke-linejoin: round; stroke-width: 1.23197px; transform-origin: 179.509px 411.091px;" id="elfwotzofhuel" class="animable"></path></g><g id="freepik--Device--inject-74" class="animable" style="transform-origin: 122.852px 236.812px;"><g id="elzp3a4zomap"><rect x="103.07" y="269.75" width="73.33" height="2.96" style="fill: rgb(255, 255, 255); stroke: rgb(38, 50, 56); stroke-linecap: round; stroke-linejoin: round; stroke-width: 1.23197px; transform-origin: 139.735px 271.23px; transform: rotate(180deg);" class="animable"></rect></g><g id="eln6b4d460dcl"><rect x="82.4" y="269.75" width="73.33" height="2.96" style="fill: rgb(255, 255, 255); stroke: rgb(38, 50, 56); stroke-linecap: round; stroke-linejoin: round; stroke-width: 1.23197px; transform-origin: 119.065px 271.23px; transform: rotate(180deg);" class="animable"></rect></g><polygon points="90.57 264.49 151.72 264.49 145.13 217.81 83.98 217.81 90.57 264.49" style="fill: rgb(255, 255, 255); stroke: rgb(38, 50, 56); stroke-linecap: round; stroke-linejoin: round; stroke-width: 1.23197px; transform-origin: 117.85px 241.15px;" id="elfxvkomc2nb" class="animable"></polygon><polygon points="88.04 264.49 149.19 264.49 142.6 217.81 81.45 217.81 88.04 264.49" style="fill: rgb(38, 50, 56); stroke: rgb(38, 50, 56); stroke-linecap: round; stroke-linejoin: round; stroke-width: 1.23197px; transform-origin: 115.32px 241.15px;" id="elehndg60hfyk" class="animable"></polygon><path d="M106.78,242.79l-6.14,29.92h15.78l6.14-29.92Zm10.7,8.88a.56.56,0,0,1-.54.43L108,252a.56.56,0,0,1-.54-.69l.81-3.35a.56.56,0,0,1,.55-.43l8.94.09a.55.55,0,0,1,.53.68Z" style="fill: rgb(255, 255, 255); stroke: rgb(38, 50, 56); stroke-linecap: round; stroke-linejoin: round; stroke-width: 1.23197px; transform-origin: 111.6px 257.75px;" id="el8nep88cvc36" class="animable"></path><g id="ely01qrd4ophj"><circle cx="82.85" cy="214.46" r="11.26" style="fill: rgb(255, 114, 94); stroke: rgb(38, 50, 56); stroke-linecap: round; stroke-linejoin: round; stroke-width: 1.23197px; transform-origin: 82.85px 214.46px; transform: rotate(-76.72deg);" class="animable"></circle></g><path d="M82.69,216.74l-3.32,3.78a2.18,2.18,0,0,1-.52.49,1.74,1.74,0,0,1-1.62.26,1.41,1.41,0,0,1-.92-.86,1.84,1.84,0,0,1,.51-1.94l3.85-4.08L77,210.13a2,2,0,0,1-.46-1.2,1.32,1.32,0,0,1,.34-1,2.16,2.16,0,0,1,.86-.55,1.64,1.64,0,0,1,1.11,0,2.41,2.41,0,0,1,1.08.82L83.12,212l3-3.49a2.58,2.58,0,0,1,.56-.58,1.62,1.62,0,0,1,1.71-.32,1.55,1.55,0,0,1,.91.88,1.29,1.29,0,0,1-.23,1.42l-4,4.37,4,4.69a2.17,2.17,0,0,1,.31.52,1.42,1.42,0,0,1-.25,1.46,1.7,1.7,0,0,1-1.28.65,2.14,2.14,0,0,1-1.85-1Z" style="fill: rgb(38, 50, 56); transform-origin: 82.8489px 214.442px;" id="el1lb9j4rf4wb" class="animable"></path></g><g id="freepik--Table--inject-74" class="animable" style="transform-origin: 135.355px 342.005px;"><path d="M227,289.73l-3.18,119.71a2.92,2.92,0,0,1-2.92,2.85h0A2.93,2.93,0,0,1,218,409.4l-1.56-119.67Z" style="fill: rgb(255, 255, 255); stroke: rgb(38, 50, 56); stroke-linecap: round; stroke-linejoin: round; stroke-width: 1.23197px; transform-origin: 221.72px 351.01px;" id="el0u2f5e03afd" class="animable"></path><path d="M188.34,289.73l-3.17,119.71a2.92,2.92,0,0,1-2.93,2.85h0a2.92,2.92,0,0,1-2.92-2.89l-1.57-119.67Z" style="fill: rgb(255, 255, 255); stroke: rgb(38, 50, 56); stroke-linecap: round; stroke-linejoin: round; stroke-width: 1.23197px; transform-origin: 183.045px 351.01px;" id="el16vqab1t9ca" class="animable"></path><path d="M92.72,289.73,89.55,409.44a2.92,2.92,0,0,1-2.93,2.85h0a2.92,2.92,0,0,1-2.92-2.89L82.13,289.73Z" style="fill: rgb(255, 255, 255); stroke: rgb(38, 50, 56); stroke-linecap: round; stroke-linejoin: round; stroke-width: 1.23197px; transform-origin: 87.425px 351.01px;" id="elcomcq2pnxkn" class="animable"></path><path d="M54,289.73,50.87,409.44A2.92,2.92,0,0,1,48,412.29h0A2.93,2.93,0,0,1,45,409.4L43.46,289.73Z" style="fill: rgb(255, 255, 255); stroke: rgb(38, 50, 56); stroke-linecap: round; stroke-linejoin: round; stroke-width: 1.23197px; transform-origin: 48.73px 351.01px;" id="el4zwcuoa4csf" class="animable"></path><g id="elwn8jkjyuwkj"><rect x="39.93" y="276.65" width="190.85" height="14.33" style="fill: rgb(255, 255, 255); stroke: rgb(38, 50, 56); stroke-linecap: round; stroke-linejoin: round; stroke-width: 1.23197px; transform-origin: 135.355px 283.815px; transform: rotate(180deg);" class="animable"></rect></g><g id="eleelu4rnt6xr"><rect x="177.47" y="276.65" width="53.31" height="14.33" style="fill: rgb(255, 255, 255); stroke: rgb(38, 50, 56); stroke-linecap: round; stroke-linejoin: round; stroke-width: 1.23197px; transform-origin: 204.125px 283.815px; transform: rotate(180deg);" class="animable"></rect></g><g id="el2ck8bwotxto"><rect x="39.93" y="276.65" width="190.85" height="7.16" style="fill: rgb(38, 50, 56); stroke: rgb(38, 50, 56); stroke-linecap: round; stroke-linejoin: round; stroke-width: 1.23197px; transform-origin: 135.355px 280.23px; transform: rotate(180deg);" class="animable"></rect></g><g id="elpd8j213cfrr"><rect x="36.97" y="271.72" width="196.77" height="7.89" style="fill: rgb(255, 114, 94); stroke: rgb(38, 50, 56); stroke-linecap: round; stroke-linejoin: round; stroke-width: 1.23197px; transform-origin: 135.355px 275.665px; transform: rotate(180deg);" class="animable"></rect></g><g id="elfbvy2f1bmyi"><rect x="36.97" y="271.72" width="136.96" height="7.89" style="fill: rgb(255, 114, 94); stroke: rgb(38, 50, 56); stroke-linecap: round; stroke-linejoin: round; stroke-width: 1.23197px; transform-origin: 105.45px 275.665px; transform: rotate(180deg);" class="animable"></rect></g></g><g id="freepik--Floor--inject-74" class="animable" style="transform-origin: 247px 412.29px;"><line x1="466.77" y1="412.29" x2="475" y2="412.29" style="fill: none; stroke: rgb(38, 50, 56); stroke-linecap: round; stroke-linejoin: round; stroke-width: 1.23197px; transform-origin: 470.885px 412.29px;" id="eltu878mnymel" class="animable"></line><line x1="19" y1="412.29" x2="453.38" y2="412.29" style="fill: none; stroke: rgb(38, 50, 56); stroke-linecap: round; stroke-linejoin: round; stroke-width: 1.23197px; transform-origin: 236.19px 412.29px;" id="el99rqockfh6j" class="animable"></line></g><defs>     <filter id="active" height="200%">         <feMorphology in="SourceAlpha" result="DILATED" operator="dilate" radius="2"></feMorphology>                <feFlood flood-color="#32DFEC" flood-opacity="1" result="PINK"></feFlood>        <feComposite in="PINK" in2="DILATED" operator="in" result="OUTLINE"></feComposite>        <feMerge>            <feMergeNode in="OUTLINE"></feMergeNode>            <feMergeNode in="SourceGraphic"></feMergeNode>        </feMerge>    </filter>    <filter id="hover" height="200%">        <feMorphology in="SourceAlpha" result="DILATED" operator="dilate" radius="2"></feMorphology>                <feFlood flood-color="#ff0000" flood-opacity="0.5" result="PINK"></feFlood>        <feComposite in="PINK" in2="DILATED" operator="in" result="OUTLINE"></feComposite>        <feMerge>            <feMergeNode in="OUTLINE"></feMergeNode>            <feMergeNode in="SourceGraphic"></feMergeNode>        </feMerge>            <feColorMatrix type="matrix" values="0   0   0   0   0                0   1   0   0   0                0   0   0   0   0                0   0   0   1   0 "></feColorMatrix>    </filter></defs><defs><clipPath id="freepik--clip-path--inject-74"><path d="M280.64,238.66c-2.81,5.1-5.16,9.17-5.16,9.17s-12.75-21-17.21-24.54-21-6.69-21-6.69a66,66,0,0,0-20.43,0s-16.57,3.18-21,6.69-17.22,24.54-17.22,24.54-2.54-4.41-5.5-9.8l-8.77,5.34c2.56,8.79,5.23,17.22,6.62,19.44,3.19,5.1,6.7,11.48,15.3,7.65s19.45-16.25,19.45-16.25l18.19.28v0l1.37,0,1.15,0v0l22-.28s10.84,12.43,19.44,16.25,12.12-2.55,15.3-7.65c1.4-2.23,4.08-10.69,6.65-19.51Z" style="fill:#fff;stroke:#263238;stroke-linecap:round;stroke-linejoin:round;stroke-width:1.23197px"></path></clipPath><clipPath id="freepik--clip-path-2--inject-74"><path d="M199.62,238.91s-4.14,8.92-3.18,14.66a60.69,60.69,0,0,1,.95,7s-6,16.58-7,22.63a13.69,13.69,0,0,0,5.42,13.39c3.51,2.55,51.32,3.19,58.65,1.28s6.69-8.93,6.37-15.3S258,262.5,258,262.5s1-19.45-3.18-24.23" style="fill:#fff;stroke:#263238;stroke-linecap:round;stroke-linejoin:round;stroke-width:1.23197px"></path></clipPath></defs></svg>