<svg class="animated" id="freepik_stories-504-error-gateway-timeout" xmlns="http://www.w3.org/2000/svg" xmlns:xlink="http://www.w3.org/1999/xlink" viewBox="0 0 500 500" version="1.1" xmlns:svgjs="http://svgjs.com/svgjs"><style>svg#freepik_stories-504-error-gateway-timeout:not(.animated) .animable {opacity: 0;}svg#freepik_stories-504-error-gateway-timeout.animated #freepik--background-simple--inject-2 {animation: 1s 1 forwards cubic-bezier(.36,-0.01,.5,1.38) lightSpeedRight;animation-delay: 0s;}svg#freepik_stories-504-error-gateway-timeout.animated #freepik--Clock--inject-2 {animation: 1s 1 forwards cubic-bezier(.36,-0.01,.5,1.38) slideLeft;animation-delay: 0s;}svg#freepik_stories-504-error-gateway-timeout.animated #freepik--Plants--inject-2 {animation: 1s 1 forwards cubic-bezier(.36,-0.01,.5,1.38) fadeIn;animation-delay: 0s;}svg#freepik_stories-504-error-gateway-timeout.animated #freepik--Device--inject-2 {animation: 1s 1 forwards cubic-bezier(.36,-0.01,.5,1.38) zoomIn;animation-delay: 0s;}svg#freepik_stories-504-error-gateway-timeout.animated #freepik--Text--inject-2 {animation: 1s 1 forwards cubic-bezier(.36,-0.01,.5,1.38) slideUp,1.5s Infinite  linear floating;animation-delay: 0s,1s;}svg#freepik_stories-504-error-gateway-timeout.animated #freepik--Character--inject-2 {animation: 1s 1 forwards cubic-bezier(.36,-0.01,.5,1.38) lightSpeedLeft;animation-delay: 0s;}            @keyframes lightSpeedRight {              from {                transform: translate3d(50%, 0, 0) skewX(-20deg);                opacity: 0;              }              60% {                transform: skewX(10deg);                opacity: 1;              }              80% {                transform: skewX(-2deg);              }              to {                opacity: 1;                transform: translate3d(0, 0, 0);              }            }                    @keyframes slideLeft {                0% {                    opacity: 0;                    transform: translateX(-30px);                }                100% {                    opacity: 1;                    transform: translateX(0);                }            }                    @keyframes fadeIn {                0% {                    opacity: 0;                }                100% {                    opacity: 1;                }            }                    @keyframes zoomIn {                0% {                    opacity: 0;                    transform: scale(0.5);                }                100% {                    opacity: 1;                    transform: scale(1);                }            }                    @keyframes slideUp {                0% {                    opacity: 0;                    transform: translateY(30px);                }                100% {                    opacity: 1;                    transform: inherit;                }            }                    @keyframes floating {                0% {                    opacity: 1;                    transform: translateY(0px);                }                50% {                    transform: translateY(-10px);                }                100% {                    opacity: 1;                    transform: translateY(0px);                }            }                    @keyframes lightSpeedLeft {              from {                transform: translate3d(-50%, 0, 0) skewX(20deg);                opacity: 0;              }              60% {                transform: skewX(-10deg);                opacity: 1;              }              80% {                transform: skewX(2deg);              }              to {                opacity: 1;                transform: translate3d(0, 0, 0);              }            }        </style><g id="freepik--background-simple--inject-2" class="animable" style="transform-origin: 262.28px 236.785px;"><path d="M57.12,297.86s7.08,61.73,59.54,88.1,103.84.72,151-5.46c24.7-3.24,47.61,8.91,71.84,11.45,77.45,8.13,138.24-83.14,127.33-150.28-9.44-58.13-46.58-99.15-114.26-128.43s-114.23-52.56-192.84-25S51.52,217.94,57.12,297.86Z" style="fill: rgb(255, 114, 94); transform-origin: 262.28px 236.785px;" id="elw0xs8jh19g8" class="animable"></path><g id="elsmtqbasyt0n"><path d="M57.12,297.86s7.08,61.73,59.54,88.1,103.84.72,151-5.46c24.7-3.24,47.61,8.91,71.84,11.45,77.45,8.13,138.24-83.14,127.33-150.28-9.44-58.13-46.58-99.15-114.26-128.43s-114.23-52.56-192.84-25S51.52,217.94,57.12,297.86Z" style="fill: rgb(255, 255, 255); opacity: 0.8; transform-origin: 262.28px 236.785px;" class="animable"></path></g></g><g id="freepik--Clock--inject-2" class="animable" style="transform-origin: 264.91px 175.91px;"><g id="elhtznhejgisw"><circle cx="264.91" cy="175.91" r="44.08" style="fill: none; stroke: rgb(38, 50, 56); stroke-linecap: round; stroke-linejoin: round; stroke-width: 1.17749px; transform-origin: 264.91px 175.91px; transform: rotate(-5.71059deg);" class="animable"></circle></g><g id="elo98d8xuxr8"><circle cx="264.91" cy="175.91" r="36.53" style="fill: none; stroke: rgb(38, 50, 56); stroke-linecap: round; stroke-linejoin: round; stroke-width: 1.17749px; transform-origin: 264.91px 175.91px; transform: rotate(-9.13deg);" class="animable"></circle></g><polyline points="241.61 175.91 264.91 175.91 264.91 209.53" style="fill: none; stroke: rgb(38, 50, 56); stroke-linecap: round; stroke-linejoin: round; stroke-width: 1.17749px; transform-origin: 253.26px 192.72px;" id="elhnmrnpuggx5" class="animable"></polyline></g><g id="freepik--Plants--inject-2" class="animable" style="transform-origin: 75.4496px 262.97px;"><path d="M98.65,152.47s0-5.91-8.28-14.19-13.59-13-13.59-13-4.14,13.59,3.54,21.87a145.27,145.27,0,0,0,18.33,16Z" style="fill: rgb(255, 114, 94); transform-origin: 87.1579px 144.215px;" id="el75qfbbpeb9m" class="animable"></path><path d="M86.64,189.39s0-5.91-8.28-14.19-13.59-13-13.59-13-4.14,13.59,3.54,21.87a146.21,146.21,0,0,0,18.33,16Z" style="fill: rgb(255, 114, 94); transform-origin: 75.1479px 181.135px;" id="elcss65kntwpa" class="animable"></path><path d="M98.13,162.54s.62-5.88,9.73-13.24,14.89-11.49,14.89-11.49,2.68,14-5.84,21.37A145,145,0,0,1,97,173.12Z" style="fill: rgb(255, 114, 94); transform-origin: 110.075px 155.465px;" id="elgi77s5l4xba" class="animable"></path><path d="M83.62,206.14s1.24-5.78,11.06-12.14,16-9.87,16-9.87,1.2,14.16-8,20.65a145.39,145.39,0,0,1-21.26,11.76Z" style="fill: rgb(255, 114, 94); transform-origin: 96.0757px 200.335px;" id="el0u7le71o2onf" class="animable"></path><path d="M86.35,253.67s0-5.91,8.27-14.18,13.6-13,13.6-13,4.14,13.6-3.55,21.87a144.76,144.76,0,0,1-18.32,16Z" style="fill: rgb(255, 114, 94); transform-origin: 97.8414px 245.425px;" id="elfqomyo8lc97" class="animable"></path><path d="M86.21,265.28s.84-5.85-6.18-15.22-11.61-14.81-11.61-14.81-6,12.87.41,22.16a145.57,145.57,0,0,0,15.87,18.4Z" style="fill: rgb(255, 114, 94); transform-origin: 76.0561px 255.53px;" id="ely5xhjk8x7ba" class="animable"></path><path d="M78.05,299.66s0-5.91,8.27-14.18,13.6-13,13.6-13,4.14,13.6-3.55,21.87a144.76,144.76,0,0,1-18.32,16Z" style="fill: rgb(255, 114, 94); transform-origin: 89.5414px 291.415px;" id="elvx0pgd5y03i" class="animable"></path><path d="M83.57,330.84S82.08,325.12,88,315s9.86-16,9.86-16,7.44,12.11,2.11,22.06a145.52,145.52,0,0,1-13.69,20.08Z" style="fill: rgb(255, 114, 94); transform-origin: 92.6481px 320.07px;" id="elriauptczsqf" class="animable"></path><path d="M99.4,151a168.79,168.79,0,0,1-2.27,18.35c-3.27,16.9-11.45,27.81-14.72,43.07s6.12,34.94,3.61,54.55-10.15,30.51-8,43.6,13.63,48.52,13.63,48.52" style="fill: none; stroke: rgb(38, 50, 56); stroke-linecap: round; stroke-linejoin: round; stroke-width: 1.17749px; transform-origin: 88.5216px 255.045px;" id="elkqi8q93yg9" class="animable"></path><line x1="98.05" y1="166.47" x2="106.97" y2="159.62" style="fill: none; stroke: rgb(38, 50, 56); stroke-linecap: round; stroke-linejoin: round; stroke-width: 1.17749px; transform-origin: 102.51px 163.045px;" id="eldqh10ur9j75" class="animable"></line><line x1="98.46" y1="158.59" x2="94.73" y2="151.95" style="fill: none; stroke: rgb(38, 50, 56); stroke-linecap: round; stroke-linejoin: round; stroke-width: 1.17749px; transform-origin: 96.595px 155.27px;" id="elrycnnir80va" class="animable"></line><path d="M82.91,211.68s7.46-5.6,15.14-11.2" style="fill: none; stroke: rgb(38, 50, 56); stroke-linecap: round; stroke-linejoin: round; stroke-width: 1.17749px; transform-origin: 90.48px 206.08px;" id="el94dp6mpw7rb" class="animable"></path><path d="M86.64,200s-6.22-12.2-13.27-20.29" style="fill: none; stroke: rgb(38, 50, 56); stroke-linecap: round; stroke-linejoin: round; stroke-width: 1.17749px; transform-origin: 80.005px 189.855px;" id="elf4gj1by71hn" class="animable"></path><path d="M86.64,262.08a92.6,92.6,0,0,1,16-21.36" style="fill: none; stroke: rgb(38, 50, 56); stroke-linecap: round; stroke-linejoin: round; stroke-width: 1.17749px; transform-origin: 94.64px 251.4px;" id="elursz3jnnhcd" class="animable"></path><path d="M85.19,270.38A105.09,105.09,0,0,0,77.1,255c-4.36-6.43-5-7.26-5-7.26" style="fill: none; stroke: rgb(38, 50, 56); stroke-linecap: round; stroke-linejoin: round; stroke-width: 1.17749px; transform-origin: 78.645px 259.06px;" id="eljqzsj0mh0pk" class="animable"></path><path d="M78.05,310.53a99.05,99.05,0,0,1,6.72-13.6,87.45,87.45,0,0,1,8.71-11.41" style="fill: none; stroke: rgb(38, 50, 56); stroke-linecap: round; stroke-linejoin: round; stroke-width: 1.17749px; transform-origin: 85.765px 298.025px;" id="elritotzoxwdi" class="animable"></path><path d="M86.27,341.13s-.87-7.08,2.24-13.09,6.63-13.9,8.09-17" style="fill: none; stroke: rgb(38, 50, 56); stroke-linecap: round; stroke-linejoin: round; stroke-width: 1.17749px; transform-origin: 91.379px 326.085px;" id="el5v0j4jn70ej" class="animable"></path><path d="M44.46,231.44s-.65-3.7,3.65-9.79S55.22,212,55.22,212s4.07,8.07.15,14.1a92.39,92.39,0,0,1-9.76,12Z" style="fill: rgb(255, 114, 94); transform-origin: 50.7496px 225.05px;" id="elg7ncnln4w2c" class="animable"></path><path d="M56,253.29s-.65-3.71,3.64-9.8,7.12-9.63,7.12-9.63,4.07,8.08.15,14.1a92.06,92.06,0,0,1-9.76,12Z" style="fill: rgb(255, 114, 94); transform-origin: 62.2895px 246.91px;" id="elszr0zvb5b9" class="animable"></path><path d="M45.88,237.7s-1-3.62-7.54-7.24-10.59-5.6-10.59-5.6-.16,9,6,12.78a93.1,93.1,0,0,0,14,6.57Z" style="fill: rgb(255, 114, 94); transform-origin: 37.7498px 234.535px;" id="el4di5csbz6gv" class="animable"></path><path d="M59.71,263.46s-1.41-3.49-8.26-6.41-11.12-4.44-11.12-4.44.79,9,7.29,12.07a92.86,92.86,0,0,0,14.61,5.07Z" style="fill: rgb(255, 114, 94); transform-origin: 51.28px 261.18px;" id="elp69cs6413gg" class="animable"></path><path d="M63.16,293.57s-.64-3.71-6.73-8-9.94-6.68-9.94-6.68-1.12,9,4.6,13.33a92.32,92.32,0,0,0,13.22,8Z" style="fill: rgb(255, 114, 94); transform-origin: 55.3557px 289.555px;" id="elh8vewxpfmhl" class="animable"></path><path d="M64.5,300.83s-1.16-3.58,2.22-10.21,5.68-10.55,5.68-10.55,5.17,7.42,2.15,13.94a92.73,92.73,0,0,1-8,13.26Z" style="fill: rgb(255, 114, 94); transform-origin: 69.9023px 293.67px;" id="el2ziwy149rlf" class="animable"></path><path d="M74.89,330.73s.43-3.74,6.26-8.37,9.54-7.23,9.54-7.23,1.63,8.89-3.83,13.57a93.1,93.1,0,0,1-12.74,8.76Z" style="fill: rgb(255, 114, 94); transform-origin: 82.5189px 326.295px;" id="elehh0ghjtvyu" class="animable"></path><path d="M73.35,321.51s-.64-3.71-6.73-8-9.93-6.68-9.93-6.68-1.12,9,4.59,13.33a92.15,92.15,0,0,0,13.23,8Z" style="fill: rgb(255, 114, 94); transform-origin: 65.5555px 317.495px;" id="eld94pvc2eues" class="animable"></path><path d="M73.27,341.66s.32-3.75-4.48-9.44-7.92-9-7.92-9-3.36,8.4,1.07,14.06A93,93,0,0,0,72.7,348.41Z" style="fill: rgb(255, 114, 94); transform-origin: 66.462px 335.815px;" id="elp6ecm735gyp" class="animable"></path><path d="M43.82,230.57a106.66,106.66,0,0,0,3.42,11.27c3.88,10.24,10.19,16.19,13.9,25.41s0,22.57,3.66,34.59,9.68,18,9.73,26.48-3.28,31.91-3.28,31.91" style="fill: none; stroke: rgb(38, 50, 56); stroke-linecap: round; stroke-linejoin: round; stroke-width: 1.17749px; transform-origin: 59.1753px 295.4px;" id="el29jozwpk3on" class="animable"></path><line x1="46.35" y1="240.15" x2="40.02" y2="236.83" style="fill: none; stroke: rgb(38, 50, 56); stroke-linecap: round; stroke-linejoin: round; stroke-width: 1.17749px; transform-origin: 43.185px 238.49px;" id="el7bxdia62ytc" class="animable"></line><line x1="45.24" y1="235.26" x2="46.86" y2="230.69" style="fill: none; stroke: rgb(38, 50, 56); stroke-linecap: round; stroke-linejoin: round; stroke-width: 1.17749px; transform-origin: 46.05px 232.975px;" id="el1qwwleshwrh" class="animable"></line><path d="M60.76,266.86s-5.29-2.7-10.71-5.38" style="fill: none; stroke: rgb(38, 50, 56); stroke-linecap: round; stroke-linejoin: round; stroke-width: 1.17749px; transform-origin: 55.405px 264.17px;" id="elbn9fqay1q2p" class="animable"></path><path d="M57.15,260a76.07,76.07,0,0,1,6.12-14.16" style="fill: none; stroke: rgb(38, 50, 56); stroke-linecap: round; stroke-linejoin: round; stroke-width: 1.17749px; transform-origin: 60.21px 252.92px;" id="ello49h3ftbkc" class="animable"></path><path d="M63.89,298.87a58.77,58.77,0,0,0-12.34-11.66" style="fill: none; stroke: rgb(38, 50, 56); stroke-linecap: round; stroke-linejoin: round; stroke-width: 1.17749px; transform-origin: 57.72px 293.04px;" id="eldfp9cws9wbb" class="animable"></path><path d="M65.7,303.92a66.35,66.35,0,0,1,3.4-10.5c2-4.51,2.34-5.1,2.34-5.1" style="fill: none; stroke: rgb(38, 50, 56); stroke-linecap: round; stroke-linejoin: round; stroke-width: 1.17749px; transform-origin: 68.57px 296.12px;" id="eli1b1d4buhha" class="animable"></path><path d="M74.25,334.72s4.19-5.14,6.81-7.07a36.72,36.72,0,0,0,4.42-3.85" style="fill: none; stroke: rgb(38, 50, 56); stroke-linecap: round; stroke-linejoin: round; stroke-width: 1.17749px; transform-origin: 79.865px 329.26px;" id="ellwc9zs69fn" class="animable"></path><path d="M74.53,328.32a63.67,63.67,0,0,0-5.69-7.8,55.83,55.83,0,0,0-6.7-6.21" style="fill: none; stroke: rgb(38, 50, 56); stroke-linecap: round; stroke-linejoin: round; stroke-width: 1.17749px; transform-origin: 68.335px 321.315px;" id="elx09cwgry1ka" class="animable"></path><path d="M72.7,348.41a16.13,16.13,0,0,0-2.82-8c-2.61-3.44-5.68-8-6.92-9.79" style="fill: none; stroke: rgb(38, 50, 56); stroke-linecap: round; stroke-linejoin: round; stroke-width: 1.17749px; transform-origin: 67.83px 339.515px;" id="elw70maa1jtxa" class="animable"></path><path d="M100.26,400.66H62.57a2.81,2.81,0,0,1-2.81-2.81l-5.41-41.71h54.13l-5.41,41.71A2.81,2.81,0,0,1,100.26,400.66Z" style="fill: rgb(38, 50, 56); transform-origin: 81.415px 378.4px;" id="elxv3ckxyyng7" class="animable"></path><path d="M108,363.2H54.35A4.24,4.24,0,0,1,50.11,359h0a4.23,4.23,0,0,1,4.24-4.23H108a4.23,4.23,0,0,1,4.24,4.23h0A4.24,4.24,0,0,1,108,363.2Z" style="fill: rgb(38, 50, 56); transform-origin: 81.175px 358.985px;" id="el8pg7m11e0h4" class="animable"></path></g><g id="freepik--Device--inject-2" class="animable" style="transform-origin: 339.17px 326.385px;"><path d="M382,366l16.6,26.74a5.12,5.12,0,0,1-4.35,7.82h-33.9a5.12,5.12,0,0,0,4.35-7.8l-16.06-26.16Z" style="fill: rgb(255, 255, 255); stroke: rgb(38, 50, 56); stroke-linecap: round; stroke-linejoin: round; stroke-width: 1.17749px; transform-origin: 374.005px 383.28px;" id="el1q07l47lobi" class="animable"></path><polygon points="382.01 365.98 348.65 366.58 354.83 376.64 388.62 376.64 382.01 365.98" style="fill: rgb(38, 50, 56); stroke: rgb(38, 50, 56); stroke-linecap: round; stroke-linejoin: round; stroke-width: 1.17749px; transform-origin: 368.635px 371.31px;" id="elqppph2ognoq" class="animable"></polygon><g id="el4qo4sbfhj2r"><rect x="290.27" y="252.2" width="141.78" height="119.74" rx="2.91" style="fill: rgb(255, 255, 255); stroke: rgb(38, 50, 56); stroke-linecap: round; stroke-linejoin: round; stroke-width: 1.17749px; transform-origin: 361.16px 312.07px; transform: rotate(180deg);" class="animable"></rect></g><g id="el5xpx55jo95q"><rect x="284.91" y="252.2" width="141.78" height="119.74" rx="2.91" style="fill: rgb(255, 255, 255); stroke: rgb(38, 50, 56); stroke-linecap: round; stroke-linejoin: round; stroke-width: 1.17749px; transform-origin: 355.8px 312.07px; transform: rotate(180deg);" class="animable"></rect></g><path d="M289.67,252.2H421.92a4.76,4.76,0,0,1,4.77,4.76v93.53H284.91V257A4.76,4.76,0,0,1,289.67,252.2Z" style="fill: rgb(38, 50, 56); stroke: rgb(38, 50, 56); stroke-linecap: round; stroke-linejoin: round; stroke-width: 1.17749px; transform-origin: 355.8px 301.345px;" id="elz54tgyzvl7" class="animable"></path><g id="elnj2ja06u36m"><rect x="290.86" y="256.96" width="129.87" height="86.98" style="fill: rgb(255, 255, 255); stroke: rgb(38, 50, 56); stroke-linecap: round; stroke-linejoin: round; stroke-width: 1.17749px; transform-origin: 355.795px 300.45px; transform: rotate(180deg);" class="animable"></rect></g><rect x="248.42" y="394.55" width="4.12" height="1.37" style="fill: rgb(255, 255, 255); stroke: rgb(38, 50, 56); stroke-linecap: round; stroke-linejoin: round; stroke-width: 1.17749px; transform-origin: 250.48px 395.235px;" id="elhx9a7uplhha" class="animable"></rect><rect x="253.92" y="394.55" width="4.12" height="1.37" style="fill: rgb(255, 255, 255); stroke: rgb(38, 50, 56); stroke-linecap: round; stroke-linejoin: round; stroke-width: 1.17749px; transform-origin: 255.98px 395.235px;" id="elzfa6y1fmla" class="animable"></rect><rect x="259.42" y="394.55" width="4.12" height="1.37" style="fill: rgb(255, 255, 255); stroke: rgb(38, 50, 56); stroke-linecap: round; stroke-linejoin: round; stroke-width: 1.17749px; transform-origin: 261.48px 395.235px;" id="el4f52xy3w1z2" class="animable"></rect><rect x="264.92" y="394.55" width="4.12" height="1.37" style="fill: rgb(255, 255, 255); stroke: rgb(38, 50, 56); stroke-linecap: round; stroke-linejoin: round; stroke-width: 1.17749px; transform-origin: 266.98px 395.235px;" id="el4i2ynvndvnr" class="animable"></rect><rect x="270.42" y="394.55" width="4.12" height="1.37" style="fill: rgb(255, 255, 255); stroke: rgb(38, 50, 56); stroke-linecap: round; stroke-linejoin: round; stroke-width: 1.17749px; transform-origin: 272.48px 395.235px;" id="elvkmpwhfprb" class="animable"></rect><rect x="275.92" y="394.55" width="4.12" height="1.37" style="fill: rgb(255, 255, 255); stroke: rgb(38, 50, 56); stroke-linecap: round; stroke-linejoin: round; stroke-width: 1.17749px; transform-origin: 277.98px 395.235px;" id="elzy1ekzfy29g" class="animable"></rect><rect x="281.42" y="394.55" width="4.12" height="1.37" style="fill: rgb(255, 255, 255); stroke: rgb(38, 50, 56); stroke-linecap: round; stroke-linejoin: round; stroke-width: 1.17749px; transform-origin: 283.48px 395.235px;" id="elqvrfbvst0cr" class="animable"></rect><rect x="286.92" y="394.55" width="4.12" height="1.37" style="fill: rgb(255, 255, 255); stroke: rgb(38, 50, 56); stroke-linecap: round; stroke-linejoin: round; stroke-width: 1.17749px; transform-origin: 288.98px 395.235px;" id="elimkjcfxk00j" class="animable"></rect><rect x="292.42" y="394.55" width="4.12" height="1.37" style="fill: rgb(255, 255, 255); stroke: rgb(38, 50, 56); stroke-linecap: round; stroke-linejoin: round; stroke-width: 1.17749px; transform-origin: 294.48px 395.235px;" id="eldbla40mfysn" class="animable"></rect><rect x="297.92" y="394.55" width="4.12" height="1.37" style="fill: rgb(255, 255, 255); stroke: rgb(38, 50, 56); stroke-linecap: round; stroke-linejoin: round; stroke-width: 1.17749px; transform-origin: 299.98px 395.235px;" id="ellmrfzox20ci" class="animable"></rect><rect x="303.42" y="394.55" width="4.12" height="1.37" style="fill: rgb(255, 255, 255); stroke: rgb(38, 50, 56); stroke-linecap: round; stroke-linejoin: round; stroke-width: 1.17749px; transform-origin: 305.48px 395.235px;" id="el749gs1jjr85" class="animable"></rect><rect x="308.92" y="394.55" width="4.12" height="1.37" style="fill: rgb(255, 255, 255); stroke: rgb(38, 50, 56); stroke-linecap: round; stroke-linejoin: round; stroke-width: 1.17749px; transform-origin: 310.98px 395.235px;" id="eltj1usdvhkb" class="animable"></rect><rect x="314.42" y="394.55" width="4.12" height="1.37" style="fill: rgb(255, 255, 255); stroke: rgb(38, 50, 56); stroke-linecap: round; stroke-linejoin: round; stroke-width: 1.17749px; transform-origin: 316.48px 395.235px;" id="elc26dsieq85o" class="animable"></rect><rect x="319.91" y="394.55" width="4.12" height="1.37" style="fill: rgb(255, 255, 255); stroke: rgb(38, 50, 56); stroke-linecap: round; stroke-linejoin: round; stroke-width: 1.17749px; transform-origin: 321.97px 395.235px;" id="el0t57awlsvwg" class="animable"></rect><rect x="325.41" y="394.55" width="4.12" height="1.37" style="fill: rgb(255, 255, 255); stroke: rgb(38, 50, 56); stroke-linecap: round; stroke-linejoin: round; stroke-width: 1.17749px; transform-origin: 327.47px 395.235px;" id="elghwwdbeyxnv" class="animable"></rect><rect x="330.91" y="394.55" width="4.12" height="1.37" style="fill: rgb(255, 255, 255); stroke: rgb(38, 50, 56); stroke-linecap: round; stroke-linejoin: round; stroke-width: 1.17749px; transform-origin: 332.97px 395.235px;" id="elke35m2gcvy" class="animable"></rect><rect x="336.41" y="394.55" width="4.12" height="1.37" style="fill: rgb(255, 255, 255); stroke: rgb(38, 50, 56); stroke-linecap: round; stroke-linejoin: round; stroke-width: 1.17749px; transform-origin: 338.47px 395.235px;" id="elmzc5zyrkz" class="animable"></rect><rect x="341.91" y="394.55" width="4.12" height="1.37" style="fill: rgb(255, 255, 255); stroke: rgb(38, 50, 56); stroke-linecap: round; stroke-linejoin: round; stroke-width: 1.17749px; transform-origin: 343.97px 395.235px;" id="elgrta2cdnmp" class="animable"></rect><rect x="347.41" y="394.55" width="4.12" height="1.37" style="fill: rgb(255, 255, 255); stroke: rgb(38, 50, 56); stroke-linecap: round; stroke-linejoin: round; stroke-width: 1.17749px; transform-origin: 349.47px 395.235px;" id="elpvtw611kouf" class="animable"></rect><rect x="352.91" y="394.55" width="4.12" height="1.37" style="fill: rgb(255, 255, 255); stroke: rgb(38, 50, 56); stroke-linecap: round; stroke-linejoin: round; stroke-width: 1.17749px; transform-origin: 354.97px 395.235px;" id="elqx2wmc5hvxj" class="animable"></rect><rect x="358.41" y="394.55" width="4.12" height="1.37" style="fill: rgb(255, 255, 255); stroke: rgb(38, 50, 56); stroke-linecap: round; stroke-linejoin: round; stroke-width: 1.17749px; transform-origin: 360.47px 395.235px;" id="el3pjnfhya50b" class="animable"></rect><rect x="246.29" y="396.12" width="119.25" height="4.45" style="fill: rgb(255, 255, 255); stroke: rgb(38, 50, 56); stroke-linecap: round; stroke-linejoin: round; stroke-width: 1.17749px; transform-origin: 305.915px 398.345px;" id="elp17ocho2vkm" class="animable"></rect><rect x="336.45" y="396.12" width="29.09" height="4.45" style="fill: rgb(38, 50, 56); stroke: rgb(38, 50, 56); stroke-linecap: round; stroke-linejoin: round; stroke-width: 1.17749px; transform-origin: 350.995px 398.345px;" id="elh2x208r137l" class="animable"></rect></g><g id="freepik--Text--inject-2" class="animable animator-active" style="transform-origin: 357.21px 327.685px;"><path d="M286.71,413.33v1.34h-.64V413.3c0-2.48-.93-4.55-3.61-4.55s-3.65,2.07-3.65,4.55v10.43c0,2.48.94,4.52,3.65,4.52s3.61-2,3.61-4.52V419.1h-3.18v-.59h3.82v5.19c0,2.83-1.16,5.16-4.28,5.16s-4.26-2.33-4.26-5.16V413.33c0-2.83,1.17-5.16,4.26-5.16S286.71,410.5,286.71,413.33Z" style="fill: rgb(38, 50, 56); transform-origin: 282.44px 418.515px;" id="elpr2sfkonfd" class="animable"></path><path d="M290.67,423.9l-1.19,4.81h-.58l4.92-20.43h.9l5,20.43h-.64l-1.19-4.81Zm.12-.58h7L294.26,409Z" style="fill: rgb(38, 50, 56); transform-origin: 294.31px 418.495px;" id="el19ooc2pof1e" class="animable"></path><path d="M304.72,428.71V408.93h-4.43v-.62h9.53v.62h-4.46v19.78Z" style="fill: rgb(38, 50, 56); transform-origin: 305.055px 418.51px;" id="elm8fjn09q5x" class="animable"></path><path d="M318.24,418.08v.58h-6v9.44h7.14v.61h-7.79v-20.4h7.79v.62h-7.14v9.15Z" style="fill: rgb(38, 50, 56); transform-origin: 315.485px 418.51px;" id="elbxxdzneak8u" class="animable"></path><path d="M326.16,428.71h-.93l-3.67-20.4h.64l3.55,19.53,3.53-19.41h.79l3.32,19.29,3.44-19.41h.58l-3.61,20.4H333l-3.29-18.88Z" style="fill: rgb(38, 50, 56); transform-origin: 329.485px 418.51px;" id="eld4d4scq8k6v" class="animable"></path><path d="M340.91,423.9l-1.2,4.81h-.58l4.93-20.43h.9l5,20.43h-.64l-1.2-4.81Zm.11-.58h7L344.49,409Z" style="fill: rgb(38, 50, 56); transform-origin: 344.545px 418.495px;" id="el5q01qs1gej8" class="animable"></path><path d="M355.45,420.47l-4.75-12.16h.64l4.46,11.28,4.46-11.28h.67l-4.84,12.16v8.24h-.64Z" style="fill: rgb(38, 50, 56); transform-origin: 355.815px 418.51px;" id="elkpjjrf4ja5" class="animable"></path><path d="M371.45,428.71V408.93H367v-.62h9.54v.62h-4.46v19.78Z" style="fill: rgb(38, 50, 56); transform-origin: 371.77px 418.51px;" id="el8t6cbv5b4dn" class="animable"></path><path d="M379,408.31v20.4h-.64v-20.4Z" style="fill: rgb(38, 50, 56); transform-origin: 378.68px 418.51px;" id="elx16awms28vd" class="animable"></path><path d="M387.65,428.65h-.73l-5.05-19.37v19.43h-.58v-20.4h1l5,19.35,5-19.35h1v20.4h-.64V409.28Z" style="fill: rgb(38, 50, 56); transform-origin: 387.29px 418.51px;" id="elaz9hhl0mmtc" class="animable"></path><path d="M402.27,418.08v.58h-6v9.44h7.14v.61h-7.78v-20.4h7.78v.62h-7.14v9.15Z" style="fill: rgb(38, 50, 56); transform-origin: 399.52px 418.51px;" id="elf63alkpvlw" class="animable"></path><path d="M405.65,413.33c0-2.86,1.23-5.16,4.32-5.16s4.37,2.3,4.37,5.16V423.7c0,2.86-1.23,5.16-4.37,5.16s-4.32-2.3-4.32-5.16Zm.64,10.4c0,2.51,1,4.55,3.68,4.55s3.73-2,3.73-4.55V413.3c0-2.51-1-4.55-3.73-4.55s-3.68,2-3.68,4.55Z" style="fill: rgb(38, 50, 56); transform-origin: 409.995px 418.515px;" id="elkvnf1ptzafb" class="animable"></path><path d="M417.25,423.7c0,2.45.87,4.58,3.58,4.58s3.59-2.13,3.59-4.58V408.31H425v15.36c0,2.8-1.11,5.19-4.2,5.19s-4.22-2.39-4.22-5.19V408.31h.64Z" style="fill: rgb(38, 50, 56); transform-origin: 420.79px 418.585px;" id="elk2aga3ocql" class="animable"></path><path d="M431.15,428.71V408.93h-4.43v-.62h9.53v.62h-4.46v19.78Z" style="fill: rgb(38, 50, 56); transform-origin: 431.485px 418.51px;" id="elcnhcfydrc4t" class="animable"></path><path d="M316.53,313.06v5.66c0,4.35,1.92,5.92,5,5.92s5-1.57,5-5.92v-13.4c0-4.35-1.91-6-5-6s-5,1.65-5,6v1.83h-9l1.74-35.33h25.23v8.7H317.84l-.78,14.53a9.12,9.12,0,0,1,8.35-4.43c7,0,10.62,4.95,10.62,13.92v13.57c0,9.75-4.88,15.32-14.27,15.32s-14.27-5.57-14.27-15.32v-5.05Z" style="fill: rgb(38, 50, 56); transform-origin: 321.76px 302.625px;" id="els1r6eehicvd" class="animable"></path><path d="M341.59,286.44c0-9.75,5.14-15.32,14.53-15.32s14.53,5.57,14.53,15.32v31.67c0,9.75-5.13,15.32-14.53,15.32s-14.53-5.57-14.53-15.32Zm9.57,32.28c0,4.35,1.92,6,5,6s5-1.65,5-6V285.83c0-4.35-1.91-6-5-6s-5,1.65-5,6Z" style="fill: rgb(38, 50, 56); transform-origin: 356.12px 302.275px;" id="eljr1ar8dil9s" class="animable"></path><path d="M374.57,313,392,271.82h10.44V313h4.53v8.7h-4.53v11.05H393V321.68H374.57ZM393,313V290.09L383.35,313Z" style="fill: rgb(38, 50, 56); transform-origin: 390.77px 302.285px;" id="eli6e7pedite" class="animable"></path><path d="M337.88,236.42V237h-6v9.44H339v.62h-7.78v-20.4H339v.61h-7.14v9.15Z" style="fill: rgb(38, 50, 56); transform-origin: 335.11px 236.86px;" id="elq9kyq7vnxwo" class="animable"></path><path d="M345.34,226.66c3,0,4.19,1.77,4.19,4.57v1.84c0,2.5-1,3.87-3.23,4.28,2.27.35,3.23,1.84,3.23,4.08v3.21a4.31,4.31,0,0,0,.56,2.42h-.7a4.64,4.64,0,0,1-.5-2.42v-3.21c0-3-1.81-3.79-4.46-3.79h-2.5v9.42h-.64v-20.4ZM344.43,237c2.83,0,4.46-.73,4.46-3.87v-1.87c0-2.48-1-4-3.58-4h-3.38V237Z" style="fill: rgb(38, 50, 56); transform-origin: 345.69px 236.86px;" id="el9bvx9qgr6fb" class="animable"></path><path d="M356.41,226.66c3,0,4.19,1.77,4.19,4.57v1.84c0,2.5-1,3.87-3.23,4.28,2.27.35,3.23,1.84,3.23,4.08v3.21a4.31,4.31,0,0,0,.56,2.42h-.7a4.64,4.64,0,0,1-.5-2.42v-3.21c0-3-1.8-3.79-4.45-3.79H353v9.42h-.64v-20.4Zm-.9,10.37c2.82,0,4.45-.73,4.45-3.87v-1.87c0-2.48-1-4-3.58-4H353V237Z" style="fill: rgb(38, 50, 56); transform-origin: 356.76px 236.86px;" id="el7wp1aq4xo8" class="animable"></path><path d="M363.4,231.67c0-2.86,1.23-5.16,4.31-5.16s4.38,2.3,4.38,5.16V242c0,2.86-1.23,5.16-4.38,5.16s-4.31-2.3-4.31-5.16Zm.64,10.4c0,2.51,1,4.55,3.67,4.55s3.73-2,3.73-4.55V231.64c0-2.51-1-4.55-3.73-4.55s-3.67,2-3.67,4.55Z" style="fill: rgb(38, 50, 56); transform-origin: 367.745px 236.835px;" id="elhnvfvozzzt" class="animable"></path><path d="M378.44,226.66c3,0,4.19,1.77,4.19,4.57v1.84c0,2.5-1,3.87-3.23,4.28,2.27.35,3.23,1.84,3.23,4.08v3.21a4.31,4.31,0,0,0,.56,2.42h-.7a4.64,4.64,0,0,1-.5-2.42v-3.21c0-3-1.8-3.79-4.46-3.79H375v9.42h-.64v-20.4ZM377.53,237c2.83,0,4.46-.73,4.46-3.87v-1.87c0-2.48-1-4-3.58-4H375V237Z" style="fill: rgb(38, 50, 56); transform-origin: 378.775px 236.86px;" id="el7u3tngr9wcm" class="animable"></path></g><g id="freepik--Character--inject-2" class="animable" style="transform-origin: 241.97px 294.91px;"><path d="M192.55,247.65s5.11-8.83,7-5.11,1.4,11.61-1.39,15.33-3.72,5.57-5.11,2.78S192.55,247.65,192.55,247.65Z" style="fill: rgb(255, 255, 255); stroke: rgb(38, 50, 56); stroke-linecap: round; stroke-linejoin: round; stroke-width: 1.17749px; transform-origin: 196.475px 251.811px;" id="elzwm0sektk0c" class="animable"></path><path d="M131.7,254.61s-6-7.43-7.44-2.32,5.58,11.61,7.44,12.54a9,9,0,0,0,4.64.47Z" style="fill: rgb(255, 255, 255); stroke: rgb(38, 50, 56); stroke-linecap: round; stroke-linejoin: round; stroke-width: 1.17749px; transform-origin: 130.203px 257.956px;" id="eltvrq3thkw8h" class="animable"></path><path d="M153.94,286.51S88.65,306.29,88.65,310s-1.87,76.86-.38,81,13.81,8.2,20.53,8.2v1.5H252.07L245,361.14s40.3-1.5,41-4.48S250.65,294,247.29,292.12s-54.54-7.47-60.51-7.47S168.12,282,153.94,286.51Z" style="fill: rgb(255, 114, 94); transform-origin: 186.852px 342.288px;" id="elix9q61chlws" class="animable"></path><g style="clip-path: url(&quot;#freepik--clip-path--inject-2&quot;); transform-origin: 167.87px 340.845px;" id="elqb7dxtmcwas" class="animable"><g id="elpzr0ptooa6h"><path d="M212.33,400.69c-90.47-33.25-86.43-50.19-86.43-50.19l-30,45.85a39,39,0,0,0,12.92,2.84v1.5Z" style="opacity: 0.3; transform-origin: 154.115px 375.595px;" class="animable"></path></g><g id="elzowr6r8qh4j"><path d="M188.93,304.44s30.71-1.62,50.91-16.16L183.28,281Z" style="opacity: 0.3; transform-origin: 211.56px 292.72px;" class="animable"></path></g></g><path d="M153.94,286.51S88.65,306.29,88.65,310s-1.87,76.86-.38,81,13.81,8.2,20.53,8.2v1.5H252.07L245,361.14s40.3-1.5,41-4.48S250.65,294,247.29,292.12s-54.54-7.47-60.51-7.47S168.12,282,153.94,286.51Z" style="fill: none; stroke: rgb(38, 50, 56); stroke-linecap: round; stroke-linejoin: round; stroke-width: 1.17749px; transform-origin: 186.852px 342.288px;" id="el467f8a0uk61" class="animable"></path><line x1="243.72" y1="342.76" x2="233.02" y2="310.67" style="fill: none; stroke: rgb(38, 50, 56); stroke-linecap: round; stroke-linejoin: round; stroke-width: 1.17749px; transform-origin: 238.37px 326.715px;" id="ell8l0b1lhv7c" class="animable"></line><path d="M101.08,311.38s17.83,10,23.54,33.52" style="fill: none; stroke: rgb(38, 50, 56); stroke-linecap: round; stroke-linejoin: round; stroke-width: 1.17749px; transform-origin: 112.85px 328.14px;" id="el0ojdza3bytb" class="animable"></path><path d="M101,355.91s-11.94,7.84-14.55,9.7-3.36,21.65-.75,27.24,13.81,8.21,21.27,4.48,10.82-21.27,8.21-30.22S101,355.91,101,355.91Z" style="fill: rgb(38, 50, 56); stroke: rgb(38, 50, 56); stroke-linecap: round; stroke-linejoin: round; stroke-width: 1.17749px; transform-origin: 100.067px 377.49px;" id="el0fejmo1oqg9h" class="animable"></path><path d="M144.62,290.24s1.12,17.91,4.47,29.85,9.7,27.61,9.7,27.61l21.27-16.79L208.79,338s-5.59-29.47-9.7-39.17-12.31-17.54-12.31-17.54S155.44,277.18,144.62,290.24Z" style="fill: rgb(38, 50, 56); stroke: rgb(38, 50, 56); stroke-linecap: round; stroke-linejoin: round; stroke-width: 1.17749px; transform-origin: 176.705px 314.188px;" id="elsmtc4ptsd79" class="animable"></path><path d="M148.72,287.26s5.22,13.06,10.82,24.25,19,26.87,22.39,23.51,6.71-29.48,6.71-35.45V281.66s-10.44,8.58-18.65,8.58S148.72,287.26,148.72,287.26Z" style="fill: rgb(255, 255, 255); transform-origin: 168.68px 308.571px;" id="elh01rscoz8dw" class="animable"></path><g style="clip-path: url(&quot;#freepik--clip-path-2--inject-2&quot;); transform-origin: 168.68px 294.311px;" id="el2eg6hqapolo" class="animable"><path d="M188.64,281.66s-10.44,8.58-18.65,8.58-21.27-3-21.27-3,2.65,6.63,6.2,14.49a31.19,31.19,0,0,0,21.83,4.9c4.68-.74,8.6-3.29,11.89-6.81V281.66Z" style="fill: rgb(255, 114, 94); transform-origin: 168.68px 294.311px;" id="elltlnbput3c" class="animable"></path><g id="elmz5kpho0yo"><path d="M188.64,281.66s-10.44,8.58-18.65,8.58-21.27-3-21.27-3,2.65,6.63,6.2,14.49a31.19,31.19,0,0,0,21.83,4.9c4.68-.74,8.6-3.29,11.89-6.81V281.66Z" style="fill: rgb(255, 255, 255); opacity: 0.7; transform-origin: 168.68px 294.311px;" class="animable"></path></g></g><path d="M148.72,287.26s5.22,13.06,10.82,24.25,19,26.87,22.39,23.51,6.71-29.48,6.71-35.45V281.66s-10.44,8.58-18.65,8.58S148.72,287.26,148.72,287.26Z" style="fill: none; stroke: rgb(38, 50, 56); stroke-linecap: round; stroke-linejoin: round; stroke-width: 1.17749px; transform-origin: 168.68px 308.571px;" id="elgeh3dglo47" class="animable"></path><path d="M130.3,250.9s7.9,26,13,33,19.05,13.94,29.27,13.47,18.58-10.68,20.44-20.9.46-33.45.46-33.45-1.85-10.22-9.75-23.69-47.85-2.33-52,7.89S130.3,250.9,130.3,250.9Z" style="fill: rgb(255, 255, 255); stroke: rgb(38, 50, 56); stroke-linecap: round; stroke-linejoin: round; stroke-width: 1.17749px; transform-origin: 161.697px 255.255px;" id="elultbd4ffhi" class="animable"></path><path d="M161.89,271.34s4.65,6.5,10.22-.47" style="fill: none; stroke: rgb(38, 50, 56); stroke-linecap: round; stroke-linejoin: round; stroke-width: 1.17749px; transform-origin: 167px 272.482px;" id="elod8c9vz601" class="animable"></path><path d="M147.49,261.12s4.18-3.72,9.76,0" style="fill: none; stroke: rgb(38, 50, 56); stroke-linecap: round; stroke-linejoin: round; stroke-width: 1.17749px; transform-origin: 152.37px 260.293px;" id="el95byfpdvgk" class="animable"></path><path d="M173.51,258.33s1.86-3.72,8.82-3.72" style="fill: none; stroke: rgb(38, 50, 56); stroke-linecap: round; stroke-linejoin: round; stroke-width: 1.17749px; transform-origin: 177.92px 256.47px;" id="el5ug5688znrs" class="animable"></path><path d="M145.17,253.68s2.79-4.64,12.08-5.57" style="fill: none; stroke: rgb(38, 50, 56); stroke-linecap: round; stroke-linejoin: round; stroke-width: 2.35497px; transform-origin: 151.21px 250.895px;" id="el7vs52otgwp" class="animable"></path><path d="M171.14,252.26s4.52-9.39,12.59-6.47" style="fill: none; stroke: rgb(38, 50, 56); stroke-linecap: round; stroke-linejoin: round; stroke-width: 2.35497px; transform-origin: 177.435px 248.744px;" id="el1e6k66sbw7h" class="animable"></path><path d="M172.58,282A2.57,2.57,0,1,1,170,279.7,2.45,2.45,0,0,1,172.58,282Z" style="fill: rgb(38, 50, 56); transform-origin: 170.024px 282.268px;" id="el3rck3m66u72" class="animable"></path><path d="M157.53,262.51a1.41,1.41,0,1,1-1.41-1.4A1.41,1.41,0,0,1,157.53,262.51Z" style="fill: rgb(38, 50, 56); transform-origin: 156.12px 262.52px;" id="elqrc3y9x84j" class="animable"></path><path d="M182,257.26a1.41,1.41,0,1,1-1.4-1.41A1.4,1.4,0,0,1,182,257.26Z" style="fill: rgb(38, 50, 56); transform-origin: 180.59px 257.26px;" id="elwazhmc1q88l" class="animable"></path><path d="M152.14,194.69H135.88c-9.29,0-21.37,24.62-20.91,36.23s10.69,19.05,13.48,20.44,7.89,3.72,7.89,2.32,5.58-12.54,5.58-12.54-1.4,6.51,2.32,6.51,15.33-12.08,15.33-12.08.47,9.75,4.18,9.75,11.62-14.4,11.62-14.4l8.36,9.29,2.79-5.57s3.25,13,6,13,5.11-6.51,6.51-13,4.18-17.19-.47-26.95-18.11-18.58-29.26-18.58S152.14,194.69,152.14,194.69Z" style="fill: rgb(38, 50, 56); stroke: rgb(38, 50, 56); stroke-linecap: round; stroke-linejoin: round; stroke-width: 1.17749px; transform-origin: 158.049px 221.611px;" id="el98n6nlu6dnb" class="animable"></path><path d="M146.39,198.4s-11.44,1.32-16.72,4.84a19.32,19.32,0,0,0-7,7.92l11.44-5.28s-7.48,5.72-8.36,8.36A72.24,72.24,0,0,0,124,222.6l7-2.2s-2.91,2.44-2.64,4.84,1.32,7.92,1.32,7.92l8.36-7.92,2.2,5.72,7-5.72.44,4.4,4.84-6.6,4,4,2.64-4.84s2.2,2.2,3.08-3.08,1.32-7.48,1.32-7.48l4.84,5.72,1.76,7.48,1.32-7.92,4,3.52,1.32-6.6,4.84,2.64,1.76-6.16,10.56,3.52s-3.08-11-5.72-14.08-15.4-4.4-15.4-4.4l-1.32-2.2s-15,3.08-16.72,4a20,20,0,0,0-4,3.08" style="fill: none; stroke: rgb(107, 107, 107); stroke-linecap: round; stroke-linejoin: round; stroke-width: 1.17749px; transform-origin: 158.315px 213.16px;" id="elns9mu9xph7e" class="animable"></path><path d="M118.87,277.93a10.17,10.17,0,0,1-2.61-6.72c0-4.1,4.48-13,5.6-13s3.35,2.23,3.35,2.23-1.86,9-2.61,12.32A9.1,9.1,0,0,1,118.87,277.93Z" style="fill: rgb(255, 255, 255); stroke: rgb(38, 50, 56); stroke-linecap: round; stroke-linejoin: round; stroke-width: 1.17749px; transform-origin: 120.735px 268.07px;" id="el9iwh5vwya9r" class="animable"></path><path d="M121.48,281.66s-3.73-4.48-3.73-6.34,6-14.93,7.46-14.93,6,1.87,7.09,2.62.75,4.47.75,7.09-6.72,14.17-6.72,14.17Z" style="fill: rgb(255, 255, 255); stroke: rgb(38, 50, 56); stroke-linecap: round; stroke-linejoin: round; stroke-width: 1.17749px; transform-origin: 125.425px 272.33px;" id="elcvq7ze9lplm" class="animable"></path><path d="M129.32,262.26s-9.33,16.79-7.84,19.4,16.42,18.66,16.42,18.66-42.54,63.43-46.64,69.77-4.85,15.67-3,20.9,13.06,10.07,20.9,9.7,13.8-10.08,16-19S147.6,307,149.47,301.81s4.47-9.33,1.86-11.94-12.68-12.31-12.68-12.31,3-2.61,2.61-5.6S134.54,263,129.32,262.26Z" style="fill: rgb(255, 255, 255); transform-origin: 119.868px 331.485px;" id="el2v8bwm0ayxj" class="animable"></path><g style="clip-path: url(&quot;#freepik--clip-path-3--inject-2&quot;); transform-origin: 122.051px 339.285px;" id="elogmhes0qwd" class="animable"><path d="M125.21,381.66c2.24-9,22.39-74.63,24.26-79.85s4.47-9.33,1.86-11.94c-2.35-2.35-10.74-10.44-12.38-12h-.06c1.46,1.91,9.18,12.25,8.38,18.23-.88,6.6-34.76,86.25-39.16,91.53-3.37,4-12.38,6.52-16.44,7.47a29.74,29.74,0,0,0,17.5,5.6C117,400.31,123,390.61,125.21,381.66Z" style="fill: rgb(255, 114, 94); transform-origin: 122.051px 339.285px;" id="el9dyy0myds6i" class="animable"></path><g id="elvf2mk4s0y7r"><path d="M125.21,381.66c2.24-9,22.39-74.63,24.26-79.85s4.47-9.33,1.86-11.94c-2.35-2.35-10.74-10.44-12.38-12h-.06c1.46,1.91,9.18,12.25,8.38,18.23-.88,6.6-34.76,86.25-39.16,91.53-3.37,4-12.38,6.52-16.44,7.47a29.74,29.74,0,0,0,17.5,5.6C117,400.31,123,390.61,125.21,381.66Z" style="fill: rgb(255, 255, 255); opacity: 0.7; transform-origin: 122.051px 339.285px;" class="animable"></path></g></g><path d="M129.32,262.26s-9.33,16.79-7.84,19.4,16.42,18.66,16.42,18.66-42.54,63.43-46.64,69.77-4.85,15.67-3,20.9,13.06,10.07,20.9,9.7,13.8-10.08,16-19S147.6,307,149.47,301.81s4.47-9.33,1.86-11.94-12.68-12.31-12.68-12.31,3-2.61,2.61-5.6S134.54,263,129.32,262.26Z" style="fill: none; stroke: rgb(38, 50, 56); stroke-linecap: round; stroke-linejoin: round; stroke-width: 1.17749px; transform-origin: 119.868px 331.485px;" id="elsx08bx7l17b" class="animable"></path><path d="M134.91,270.47,133.05,275l5.6,2.61.24.3" style="fill: none; stroke: rgb(38, 50, 56); stroke-linecap: round; stroke-linejoin: round; stroke-width: 1.17749px; transform-origin: 135.97px 274.19px;" id="el618l6r6r9x5" class="animable"></path><path d="M246.1,339.5s3.36-5.6,7.47-7.09,20.15-3,26.49-.75,10.07,10.45,11.19,14.92.75,10.83-3,14.18-8.58,2.62-13.81,1.12-15.67-7.46-21.27-10.82S246.48,341.73,246.1,339.5Z" style="fill: rgb(38, 50, 56); stroke: rgb(38, 50, 56); stroke-linecap: round; stroke-linejoin: round; stroke-width: 1.17749px; transform-origin: 268.953px 346.828px;" id="elbby1ul7umx" class="animable"></path><path d="M193.87,333.15s-29.48,24.26-33.58,26.49-2.24,6.35-.75,7.84,11.19,10.45,15.67,13.43,10.82-2.24,12.31-3-.37-4.11-.37-4.11,11.57-6.34,13.43-12.31a67.4,67.4,0,0,0,2.24-14.18s47,19,58.21,23.13,18.28,4.48,23.51-.74,5.59-16.05,3-21.64-19-10.82-26.49-10.82-60.45-6.35-63.8-5.23Z" style="fill: rgb(255, 255, 255); transform-origin: 223.455px 356.849px;" id="elb2zbn5r2714" class="animable"></path><g style="clip-path: url(&quot;#freepik--clip-path-4--inject-2&quot;); transform-origin: 229.395px 360.513px;" id="elh6m4xbcs765" class="animable"><path d="M284.54,369.72a15.59,15.59,0,0,0,3.78-7.13c-19.63-1.21-77.21-23-83-23.38-6.6-.44-7.48,9.68-14.09,18S180.71,367.81,175,368.69c-3.9.6-4.52,5.5-4.53,8.56,1.8,1.49,3.49,2.82,4.75,3.66,4.48,3,10.82-2.24,12.31-3s-.37-4.11-.37-4.11,11.57-6.34,13.43-12.31a67.4,67.4,0,0,0,2.24-14.18s47,19,58.21,23.13S279.31,374.94,284.54,369.72Z" style="fill: rgb(255, 114, 94); transform-origin: 229.395px 360.513px;" id="eltnzy3q5djds" class="animable"></path><g id="eloitputrtte"><path d="M284.54,369.72a15.59,15.59,0,0,0,3.78-7.13c-19.63-1.21-77.21-23-83-23.38-6.6-.44-7.48,9.68-14.09,18S180.71,367.81,175,368.69c-3.9.6-4.52,5.5-4.53,8.56,1.8,1.49,3.49,2.82,4.75,3.66,4.48,3,10.82-2.24,12.31-3s-.37-4.11-.37-4.11,11.57-6.34,13.43-12.31a67.4,67.4,0,0,0,2.24-14.18s47,19,58.21,23.13S279.31,374.94,284.54,369.72Z" style="fill: rgb(255, 255, 255); opacity: 0.7; transform-origin: 229.395px 360.513px;" class="animable"></path></g></g><path d="M193.87,333.15s-29.48,24.26-33.58,26.49-2.24,6.35-.75,7.84,11.19,10.45,15.67,13.43,10.82-2.24,12.31-3-.37-4.11-.37-4.11,11.57-6.34,13.43-12.31a67.4,67.4,0,0,0,2.24-14.18s47,19,58.21,23.13,18.28,4.48,23.51-.74,5.59-16.05,3-21.64-19-10.82-26.49-10.82-60.45-6.35-63.8-5.23Z" style="fill: none; stroke: rgb(38, 50, 56); stroke-linecap: round; stroke-linejoin: round; stroke-width: 1.17749px; transform-origin: 223.455px 356.849px;" id="elpavwfhk6y6" class="animable"></path><line x1="187.15" y1="373.82" x2="182.3" y2="376.06" style="fill: rgb(255, 255, 255); stroke: rgb(38, 50, 56); stroke-linecap: round; stroke-linejoin: round; stroke-width: 1.17749px; transform-origin: 184.725px 374.94px;" id="elkqka6na7rhs" class="animable"></line><polygon points="200.96 340.99 202.82 347.33 208.05 349.94 205.06 337.63 200.96 340.99" style="fill: rgb(38, 50, 56); stroke: rgb(38, 50, 56); stroke-linecap: round; stroke-linejoin: round; stroke-width: 1.17749px; transform-origin: 204.505px 343.785px;" id="elj96p6j4dqn8" class="animable"></polygon><ellipse cx="200.4" cy="335.58" rx="8.77" ry="6.9" style="fill: rgb(255, 255, 255); stroke: rgb(38, 50, 56); stroke-linecap: round; stroke-linejoin: round; stroke-width: 1.17749px; transform-origin: 200.4px 335.58px;" id="elz2do179hvw" class="animable"></ellipse><line x1="40.61" y1="400.66" x2="443.33" y2="400.66" style="fill: none; stroke: rgb(38, 50, 56); stroke-linecap: round; stroke-linejoin: round; stroke-width: 1.17749px; transform-origin: 241.97px 400.66px;" id="elk228noz3ja" class="animable"></line></g><defs>     <filter id="active" height="200%">         <feMorphology in="SourceAlpha" result="DILATED" operator="dilate" radius="2"></feMorphology>                <feFlood flood-color="#32DFEC" flood-opacity="1" result="PINK"></feFlood>        <feComposite in="PINK" in2="DILATED" operator="in" result="OUTLINE"></feComposite>        <feMerge>            <feMergeNode in="OUTLINE"></feMergeNode>            <feMergeNode in="SourceGraphic"></feMergeNode>        </feMerge>    </filter>    <filter id="hover" height="200%">        <feMorphology in="SourceAlpha" result="DILATED" operator="dilate" radius="2"></feMorphology>                <feFlood flood-color="#ff0000" flood-opacity="0.5" result="PINK"></feFlood>        <feComposite in="PINK" in2="DILATED" operator="in" result="OUTLINE"></feComposite>        <feMerge>            <feMergeNode in="OUTLINE"></feMergeNode>            <feMergeNode in="SourceGraphic"></feMergeNode>        </feMerge>            <feColorMatrix type="matrix" values="0   0   0   0   0                0   1   0   0   0                0   0   0   0   0                0   0   0   1   0 "></feColorMatrix>    </filter></defs><defs><clipPath id="freepik--clip-path--inject-2"><path d="M153.94,286.51S88.65,306.29,88.65,310s-1.87,76.86-.38,81,13.81,8.2,20.53,8.2v1.5H252.07L245,361.14s40.3-1.5,41-4.48S250.65,294,247.29,292.12s-54.54-7.47-60.51-7.47S168.12,282,153.94,286.51Z" style="fill:#FF725E;stroke:#263238;stroke-linecap:round;stroke-linejoin:round;stroke-width:1.177485466003418px"></path></clipPath><clipPath id="freepik--clip-path-2--inject-2"><path d="M148.72,287.26s5.22,13.06,10.82,24.25,19,26.87,22.39,23.51,6.71-29.48,6.71-35.45V281.66s-10.44,8.58-18.65,8.58S148.72,287.26,148.72,287.26Z" style="fill:#fff;stroke:#263238;stroke-linecap:round;stroke-linejoin:round;stroke-width:1.177485466003418px"></path></clipPath><clipPath id="freepik--clip-path-3--inject-2"><path d="M129.32,262.26s-9.33,16.79-7.84,19.4,16.42,18.66,16.42,18.66-42.54,63.43-46.64,69.77-4.85,15.67-3,20.9,13.06,10.07,20.9,9.7,13.8-10.08,16-19S147.6,307,149.47,301.81s4.47-9.33,1.86-11.94-12.68-12.31-12.68-12.31,3-2.61,2.61-5.6S134.54,263,129.32,262.26Z" style="fill:#fff;stroke:#263238;stroke-linecap:round;stroke-linejoin:round;stroke-width:1.177485466003418px"></path></clipPath><clipPath id="freepik--clip-path-4--inject-2"><path d="M193.87,333.15s-29.48,24.26-33.58,26.49-2.24,6.35-.75,7.84,11.19,10.45,15.67,13.43,10.82-2.24,12.31-3-.37-4.11-.37-4.11,11.57-6.34,13.43-12.31a67.4,67.4,0,0,0,2.24-14.18s47,19,58.21,23.13,18.28,4.48,23.51-.74,5.59-16.05,3-21.64-19-10.82-26.49-10.82-60.45-6.35-63.8-5.23Z" style="fill:#fff;stroke:#263238;stroke-linecap:round;stroke-linejoin:round;stroke-width:1.177485466003418px"></path></clipPath></defs></svg>