<svg class="animated" id="freepik_stories-error-429" xmlns="http://www.w3.org/2000/svg" viewBox="0 0 500 500" version="1.1" xmlns:xlink="http://www.w3.org/1999/xlink" xmlns:svgjs="http://svgjs.com/svgjs"><style>svg#freepik_stories-error-429:not(.animated) .animable {opacity: 0;}svg#freepik_stories-error-429.animated #freepik--Floor--inject-70 {animation: 1s 1 forwards cubic-bezier(.36,-0.01,.5,1.38) slideRight;animation-delay: 0s;}svg#freepik_stories-error-429.animated #freepik--Shadows--inject-70 {animation: 1s 1 forwards cubic-bezier(.36,-0.01,.5,1.38) lightSpeedRight;animation-delay: 0s;}svg#freepik_stories-error-429.animated #freepik--Device--inject-70 {animation: 1s 1 forwards cubic-bezier(.36,-0.01,.5,1.38) lightSpeedLeft;animation-delay: 0s;}svg#freepik_stories-error-429.animated #freepik--Envelopes--inject-70 {animation: 1s 1 forwards cubic-bezier(.36,-0.01,.5,1.38) fadeIn,1.5s Infinite  linear wind;animation-delay: 0s,1s;}svg#freepik_stories-error-429.animated #freepik--Character--inject-70 {animation: 1s 1 forwards cubic-bezier(.36,-0.01,.5,1.38) slideUp;animation-delay: 0s;}svg#freepik_stories-error-429.animated #freepik--speech-bubble--inject-70 {animation: 1s 1 forwards cubic-bezier(.36,-0.01,.5,1.38) slideLeft,1.5s Infinite  linear floating;animation-delay: 0s,1s;}            @keyframes slideRight {                0% {                    opacity: 0;                    transform: translateX(30px);                }                100% {                    opacity: 1;                    transform: translateX(0);                }            }                    @keyframes lightSpeedRight {              from {                transform: translate3d(50%, 0, 0) skewX(-20deg);                opacity: 0;              }              60% {                transform: skewX(10deg);                opacity: 1;              }              80% {                transform: skewX(-2deg);              }              to {                opacity: 1;                transform: translate3d(0, 0, 0);              }            }                    @keyframes lightSpeedLeft {              from {                transform: translate3d(-50%, 0, 0) skewX(20deg);                opacity: 0;              }              60% {                transform: skewX(-10deg);                opacity: 1;              }              80% {                transform: skewX(2deg);              }              to {                opacity: 1;                transform: translate3d(0, 0, 0);              }            }                    @keyframes fadeIn {                0% {                    opacity: 0;                }                100% {                    opacity: 1;                }            }                    @keyframes wind {                0% {                    transform: rotate( 0deg );                }                25% {                    transform: rotate( 1deg );                }                75% {                    transform: rotate( -1deg );                }            }                    @keyframes slideUp {                0% {                    opacity: 0;                    transform: translateY(30px);                }                100% {                    opacity: 1;                    transform: inherit;                }            }                    @keyframes slideLeft {                0% {                    opacity: 0;                    transform: translateX(-30px);                }                100% {                    opacity: 1;                    transform: translateX(0);                }            }                    @keyframes floating {                0% {                    opacity: 1;                    transform: translateY(0px);                }                50% {                    transform: translateY(-10px);                }                100% {                    opacity: 1;                    transform: translateY(0px);                }            }        </style><g id="freepik--Floor--inject-70" class="animable" style="transform-origin: 250.013px 343.222px;"><path d="M413.86,248c-91.09-52.59-238.29-52.59-328.79,0s-90,137.85,1.07,190.44,238.29,52.6,328.79,0S505,300.58,413.86,248Z" style="fill: rgb(245, 245, 245); transform-origin: 250.013px 343.222px;" id="el7yrfbhjcq77" class="animable"></path></g><g id="freepik--Shadows--inject-70" class="animable" style="transform-origin: 255.89px 351.3px;"><polygon points="229.29 445.35 248.44 463.61 301.9 444.86 282.75 426.6 229.29 445.35" style="fill: rgb(224, 224, 224); transform-origin: 265.595px 445.105px;" id="elzk79zgz083" class="animable"></polygon><polygon points="133.62 380.82 141.42 385.32 167.37 370.24 122.97 344.6 97.01 359.69 108.4 366.26 90.36 368.9 105.89 404.05 141.57 398.83 133.62 380.82" style="fill: rgb(224, 224, 224); transform-origin: 128.865px 374.325px;" id="eltfths8majg" class="animable"></polygon><path d="M367.82,347.58l50.76-21.12L397,309.12,356.54,326l-.8-9.33,1.47.34L371,297.2l-51.29-12,37.16-21.46-26-15.09-44.4,25.64,23.43,13.61-10.76,15.47L319.07,308l-25.87.69,11.45-22.81-35.36-6,15.58,20.83h0l-15.58-20.83L258.08,302.2l-60.73,1.62,1.52,17.81L183,317.88l-13.84,19.75,44.06,10.43-49,2.6,3.47,21.24,57.73-3,.59,1.46-33,3.43,3.9,12.36-31.31,10.27,2.13,2.17L159,395.6h0L127.83,427h0l32,10.67,23.3-23.5,13.51,13.76,29.75-9.76-2.48,2.5h0l32,10.67,21.82-22,3,1.73,41-23.69,30.64-10.82L330.62,356l.52.2,20.56-17.66-24-9.42,22.66-.61-4.06,1.69ZM165.64,418l-5.11-17.08L165.64,418ZM287.2,320.68l5.33-10.61,1.14,13.4-4.84,4.16-12.41-8.78Zm-25.52,2.78-.61-7.23,11.86,2-33.72,16,1.82-2.6-28.86-6.83Zm-5,71.35-.07-.26.07.26Zm5.47-3.16L255,389.27h0l-14.9,15-6.24-19.76,52.85-7.08Zm-42.9,16.22,19.34-2-10.71,10.8Zm42.47,3.76h0l-4.2-14h0Zm30.23-37.18-7.52-18.59-55.27,7.39-1.94-11.89h0l4.78-6.82L249.5,357l37.8-17.9,24,9.42-23.17,8.18,20.06,19-9.18-5.33Z" style="fill: rgb(224, 224, 224); transform-origin: 273.205px 343.16px;" id="el838n4sgaix9" class="animable"></path><polygon points="297.48 437.41 333.6 441.64 345.82 406.11 309.7 401.87 297.48 437.41" style="fill: rgb(224, 224, 224); transform-origin: 321.65px 421.755px;" id="elzeckb3kb4td" class="animable"></polygon><path d="M343.15,364.08c18-10.39,47.06-10.39,64.93,0s17.77,27.22-.21,37.6-47.06,10.39-64.93,0S325.17,374.46,343.15,364.08Z" style="fill: rgb(224, 224, 224); transform-origin: 375.51px 382.878px;" id="elkd2v106ae4" class="animable"></path><path d="M264.39,275,158,336.88a8.24,8.24,0,0,1-8.26,0l-54.3-31.36a2.06,2.06,0,0,1,0-3.57L201.83,240.1a8.24,8.24,0,0,1,8.26,0l54.3,31.36A2.06,2.06,0,0,1,264.39,275Z" style="fill: rgb(224, 224, 224); transform-origin: 179.902px 288.49px;" id="el08fneuyitc37" class="animable"></path></g><g id="freepik--Device--inject-70" class="animable" style="transform-origin: 171.29px 180.635px;"><polygon points="153.92 312.8 153.85 335.44 261.2 273.05 261.27 250.41 153.92 312.8" style="fill: rgb(186, 104, 200); transform-origin: 207.56px 292.925px;" id="elzq991mvsvw7" class="animable"></polygon><path d="M135.44,280.79,98,259.19l-.12,43.94,55.94,32.31.07-22.64Z" style="fill: rgb(186, 104, 200); transform-origin: 125.885px 297.315px;" id="el7yh3wkd15q" class="animable"></path><g id="elan0jrvufy77"><path d="M135.44,280.79,98,259.19l-.12,43.94,55.94,32.31.07-22.64Z" style="opacity: 0.3; transform-origin: 125.885px 297.315px;" class="animable"></path></g><path d="M153.92,312.8l107.35-62.39-18.47-32L135.44,280.79Z" style="fill: rgb(186, 104, 200); transform-origin: 198.355px 265.605px;" id="el0gt195pxkfg" class="animable"></path><g id="elsoottb66z4f"><path d="M153.92,312.8l107.35-62.39-18.47-32L135.44,280.79Z" style="opacity: 0.1; transform-origin: 198.355px 265.605px;" class="animable"></path></g><g id="eltw0lv6v5s6"><g style="opacity: 0.5; transform-origin: 236.076px 245.294px;" class="animable"><path d="M242.35,233.2l6.29,13.24a.83.83,0,0,1-.23,1.08l-17.72,10.23a.69.69,0,0,1-.94-.4l-6.26-13.19c0-.1-.06-.17-.08-.23a1.53,1.53,0,0,1,0-.27,1.7,1.7,0,0,1,.05-.23,1.06,1.06,0,0,1,.11-.19.61.61,0,0,1,.17-.16l17.73-10.23a.49.49,0,0,1,.17-.06.4.4,0,0,1,.22,0,.42.42,0,0,1,.18.07.69.69,0,0,1,.2.15A1.3,1.3,0,0,1,242.35,233.2Zm4.78,13.18L242,235.49l-3.81,12.33a.67.67,0,0,1-.29.38.53.53,0,0,1-.43.05L225.37,245l5.2,11,16.56-9.56m-6.6-11.12-14.39,8.31,10.91,3,3.48-11.27" style="fill: rgb(255, 255, 255); transform-origin: 236.076px 245.294px;" id="ele4boxfy4e7h" class="animable"></path></g></g><polygon points="242.79 218.41 205.38 196.81 98.03 259.19 135.44 280.79 242.79 218.41" style="fill: rgb(186, 104, 200); transform-origin: 170.41px 238.8px;" id="eleyv38qxlnkm" class="animable"></polygon><g id="el3fonesp9xd7"><polygon points="242.79 218.41 205.38 196.81 98.03 259.19 135.44 280.79 242.79 218.41" style="opacity: 0.2; transform-origin: 170.41px 238.8px;" class="animable"></polygon></g><g id="el4metb9qt8t4"><polygon points="205.38 196.81 98.03 259.19 120.92 272.41 228.27 210.02 205.38 196.81" style="opacity: 0.2; transform-origin: 163.15px 234.61px;" class="animable"></polygon></g><polygon points="179.92 262.09 143.88 283.04 156.17 304.34 192.22 283.39 179.92 262.09" style="fill: rgb(69, 90, 100); transform-origin: 168.05px 283.215px;" id="el0kgxrplrpt2a" class="animable"></polygon><g id="elol06jm40g"><g style="opacity: 0.5; transform-origin: 172.509px 283.214px;" class="animable"><polygon points="171.82 283.34 170.34 284.19 167.34 278.86 169.56 277.57 171.82 283.34" style="fill: rgb(255, 255, 255); transform-origin: 169.58px 280.88px;" id="elspj07u0kl9k" class="animable"></polygon><path d="M171.42,284.46a1.19,1.19,0,0,1,1.72.64,1.49,1.49,0,0,1-.49,2,1.23,1.23,0,0,1-1.75-.66A1.46,1.46,0,0,1,171.42,284.46Z" style="fill: rgb(255, 255, 255); transform-origin: 172.023px 285.776px;" id="elr4ooz56ageo" class="animable"></path><path d="M178.53,281.75a3.68,3.68,0,0,1,1.35,2.83,2.81,2.81,0,0,1-1.27,2.54l-9.32,5.38a2.28,2.28,0,0,1-2.62-.3,3.68,3.68,0,0,1-1.34-2.83l-.19-12.9a2.78,2.78,0,0,1,1.27-2.54,2.27,2.27,0,0,1,2.61.29Zm.3,2.71a2.21,2.21,0,0,0-.81-1.7l-9.5-7.52a1.38,1.38,0,0,0-1.57-.18,1.67,1.67,0,0,0-.77,1.53l.19,12.9a2.24,2.24,0,0,0,.81,1.7,1.38,1.38,0,0,0,1.57.18l9.32-5.38a1.7,1.7,0,0,0,.76-1.53" style="fill: rgb(255, 255, 255); transform-origin: 172.509px 283.214px;" id="elo5b0mbqfnno" class="animable"></path></g></g><polygon points="195.01 281.76 182.72 260.47 179.92 262.09 192.22 283.39 195.01 281.76" style="fill: rgb(186, 104, 200); transform-origin: 187.465px 271.93px;" id="el448drnwa91d" class="animable"></polygon><g id="elnyxzt8ycwy9"><polygon points="195.01 281.76 182.72 260.47 179.92 262.09 192.22 283.39 195.01 281.76" style="opacity: 0.3; transform-origin: 187.465px 271.93px;" class="animable"></polygon></g><g id="elm0vxmb1u29j"><polygon points="156.17 304.34 192.22 283.39 191.08 281.49 158.08 300.67 146.75 281.37 143.88 283.04 156.17 304.34" style="opacity: 0.1; transform-origin: 168.05px 292.855px;" class="animable"></polygon></g><polygon points="256.35 264.73 252.58 266.9 256.37 269.09 256.35 264.73" style="fill: rgb(69, 90, 100); transform-origin: 254.475px 266.91px;" id="elyq6a5yoxpb" class="animable"></polygon><polygon points="252.58 266.9 159.23 320.77 159.24 325.13 256.37 269.09 256.37 269.09 252.58 266.9" style="fill: rgb(55, 71, 79); transform-origin: 207.8px 296.015px;" id="eldsangfemtym" class="animable"></polygon><path d="M120.8,105.47a4.31,4.31,0,0,0,.37.37c-.13-.13-.26-.25-.38-.38Z" style="fill: none; transform-origin: 120.98px 105.65px;" id="elqpk2yv6jm2" class="animable"></path><path d="M120.37,104.94l.17.22-.18-.23Z" style="fill: none; transform-origin: 120.45px 105.045px;" id="el02w5sxuhhy61" class="animable"></path><path d="M119.88,104.19c.05.09.11.18.17.27l-.17-.28Z" style="fill: none; transform-origin: 119.965px 104.32px;" id="elfjfyx4m0gwv" class="animable"></path><path d="M121.76,106.35l.22.17-.23-.18Z" style="fill: none; transform-origin: 121.865px 106.43px;" id="eltwqcmvmajj" class="animable"></path><path d="M119.36,102.73c0,.1,0,.2.07.3,0-.1-.05-.21-.07-.32Z" style="fill: none; transform-origin: 119.395px 102.87px;" id="elvfscg0wyoxp" class="animable"></path><path d="M122.59,107h0c.16.11.32.22.49.32l12.09,7-12.09-7C122.91,107.17,122.75,107.06,122.59,107Z" style="fill: none; transform-origin: 128.88px 110.66px;" id="elbndja85zk6" class="animable"></path><path d="M119.55,103.46c0,.1.09.19.13.29a2.88,2.88,0,0,1-.13-.31Z" style="fill: none; transform-origin: 119.615px 103.595px;" id="elnjorit3vll" class="animable"></path><path d="M119.36,102.71c0,.11,0,.22.07.32v0c0,.12.07.25.11.37a2.88,2.88,0,0,0,.13.31v0l.19.4.17.28v0q.14.22.3.45l.18.23.17.21.08.09c.12.13.25.25.38.38l.18.17c.12.11.26.22.4.33l.23.18.14.12.47.31c.16.11.32.22.5.32l12.09,7,44.29-25.57-12.09-7c-5.11-3-13.41-3-18.56,0L123.15,96.52c-2.75,1.59-4,3.71-3.84,5.79h0A2.6,2.6,0,0,0,119.36,102.71Z" style="fill: rgb(69, 90, 100); transform-origin: 149.368px 96.77px;" id="ellkitr0tb0qb" class="animable"></path><g id="elpiv31d1lqxk"><path d="M119.36,102.71c0,.11,0,.22.07.32v0c0,.12.07.25.11.37a2.88,2.88,0,0,0,.13.31v0l.19.4.17.28v0q.14.22.3.45l.18.23.17.21.08.09c.12.13.25.25.38.38l.18.17c.12.11.26.22.4.33l.23.18.14.12.47.31c.16.11.32.22.5.32l12.09,7,44.29-25.57-12.09-7c-5.11-3-13.41-3-18.56,0L123.15,96.52c-2.75,1.59-4,3.71-3.84,5.79h0A2.6,2.6,0,0,0,119.36,102.71Z" style="fill: rgb(255, 255, 255); opacity: 0.5; transform-origin: 149.368px 96.77px;" class="animable"></path></g><path d="M123.09,107.27c-.17-.1-.33-.21-.49-.32h0l-.47-.31-.14-.12-.22-.17h0c-.14-.11-.28-.22-.4-.33l-.18-.17a4.31,4.31,0,0,1-.37-.37h0l-.08-.09-.17-.21-.17-.22h0q-.17-.23-.3-.45v0c-.06-.09-.12-.18-.17-.27h0l-.19-.4v0c0-.1-.09-.19-.13-.29v0c0-.12-.07-.25-.11-.37v0c0-.1-.05-.2-.07-.3v0a2.6,2.6,0,0,1,0-.39h0c0-.13,0-.25,0-.38l.12,41.36v.12a2.3,2.3,0,0,0,0,.26,3,3,0,0,0,0,.42v.07c0,.09.06.17.08.26s.07.27.11.4l0,.08a2.4,2.4,0,0,0,.11.23c.06.14.12.28.19.41l0,.1c0,.07.09.13.13.19s.2.31.31.46a1.1,1.1,0,0,1,.09.14l.26.3.09.1a5.21,5.21,0,0,0,.47.47l.08.07c.12.11.27.22.4.33s.24.2.37.29l.47.32.34.22.16.1,12.09,7-.12-41.35Z" style="fill: rgb(55, 71, 79); transform-origin: 127.361px 128.96px;" id="eletnsis0chbs" class="animable"></path><g id="eldc7vunj70ba"><path d="M123.09,107.27c-.17-.1-.33-.21-.49-.32h0l-.47-.31-.14-.12-.22-.17h0c-.14-.11-.28-.22-.4-.33l-.18-.17a4.31,4.31,0,0,1-.37-.37h0l-.08-.09-.17-.21-.17-.22h0q-.17-.23-.3-.45v0c-.06-.09-.12-.18-.17-.27h0l-.19-.4v0c0-.1-.09-.19-.13-.29v0c0-.12-.07-.25-.11-.37v0c0-.1-.05-.2-.07-.3v0a2.6,2.6,0,0,1,0-.39h0c0-.13,0-.25,0-.38l.12,41.36v.12a2.3,2.3,0,0,0,0,.26,3,3,0,0,0,0,.42v.07c0,.09.06.17.08.26s.07.27.11.4l0,.08a2.4,2.4,0,0,0,.11.23c.06.14.12.28.19.41l0,.1c0,.07.09.13.13.19s.2.31.31.46a1.1,1.1,0,0,1,.09.14l.26.3.09.1a5.21,5.21,0,0,0,.47.47l.08.07c.12.11.27.22.4.33s.24.2.37.29l.47.32.34.22.16.1,12.09,7-.12-41.35Z" style="fill: rgb(255, 255, 255); opacity: 0.3; transform-origin: 127.361px 128.96px;" class="animable"></path></g><polygon points="179.47 88.73 135.18 114.3 135.3 155.65 179.59 130.09 179.47 88.73" style="fill: rgb(38, 50, 56); transform-origin: 157.385px 122.19px;" id="elbnmm9f7srn" class="animable"></polygon><path d="M89.05,278.92h0l0,0Z" style="fill: rgb(255, 168, 167); transform-origin: 89.05px 278.92px;" id="elksir24n0fsl" class="animable"></path><path d="M87.37,275.39l-.27-121.1a11.92,11.92,0,0,1,5.4-9.36L243,58.25a3.85,3.85,0,0,1,3.82-.4l-5.67-3.28h0c-1-.63-2.39-.58-3.93.32L86.71,141.58a11.92,11.92,0,0,0-5.4,9.35L81.58,272A3.87,3.87,0,0,0,83,275.41h0l.3.17,5.59,3.26A3.82,3.82,0,0,1,87.37,275.39Z" style="fill: rgb(186, 104, 200); transform-origin: 164.065px 166.494px;" id="elxum8br8fz8h" class="animable"></path><g id="elrovdoppefae"><path d="M241.18,54.57h0c-1-.63-2.39-.58-3.93.32L86.71,141.58a11.34,11.34,0,0,0-4.13,4.61l5.79,3.35a11.34,11.34,0,0,1,4.13-4.61L243,58.25a3.85,3.85,0,0,1,3.82-.4Z" style="fill: rgb(255, 255, 255); opacity: 0.3; transform-origin: 164.7px 101.844px;" class="animable"></path></g><g id="elyaiy3j1vp"><path d="M81.31,150.93,81.58,272A3.87,3.87,0,0,0,83,275.41h0l.3.17,5.59,3.26a3.82,3.82,0,0,1-1.55-3.46l-.27-121.1a10.47,10.47,0,0,1,1.27-4.75l-5.79-3.35A10.59,10.59,0,0,0,81.31,150.93Z" style="opacity: 0.2; transform-origin: 85.1px 212.51px;" class="animable"></path></g><path d="M246.92,57.89l0,0,0,0Z" style="fill: rgb(255, 168, 167); transform-origin: 246.92px 57.89px;" id="elv3ennh6ppfc" class="animable"></path><path d="M248.47,61.34a3.78,3.78,0,0,0-1.56-3.45l0,0,0,0a3.85,3.85,0,0,0-3.82.4L92.5,144.93a11.92,11.92,0,0,0-5.4,9.36l.27,121.1a3.82,3.82,0,0,0,1.55,3.46l.09,0,0,0a3.9,3.9,0,0,0,3.76-.43L243.34,191.8a11.9,11.9,0,0,0,5.4-9.35Zm-7.81,125.83L92.71,272.37l-.26-118.09a6.67,6.67,0,0,1,2.72-4.71l148-85.2.26,118.09A6.69,6.69,0,0,1,240.66,187.17Z" style="fill: rgb(186, 104, 200); transform-origin: 167.92px 168.353px;" id="eled80p28rqe4" class="animable"></path><path d="M243.13,64.37l-3.83,2.2.25,114a6.71,6.71,0,0,1-2.72,4.71l-144.13,83v4.08l148-85.2a6.69,6.69,0,0,0,2.73-4.71Z" style="fill: rgb(186, 104, 200); transform-origin: 168.065px 168.365px;" id="elflnoyifq17t" class="animable"></path><g id="elmk4m8qllvsd"><path d="M243.13,64.37l-3.83,2.2.25,114a6.71,6.71,0,0,1-2.72,4.71l-144.13,83v4.08l148-85.2a6.69,6.69,0,0,0,2.73-4.71Z" style="opacity: 0.3; transform-origin: 168.065px 168.365px;" class="animable"></path></g><path d="M239.55,180.59l-.25-114-144.13,83a6.67,6.67,0,0,0-2.72,4.71l.25,114,144.13-83A6.71,6.71,0,0,0,239.55,180.59Z" style="fill: rgb(69, 90, 100); transform-origin: 166px 167.445px;" id="eloskisl4unm" class="animable"></path><g id="elhlzvtdyx3yi"><g style="opacity: 0.5; transform-origin: 173.31px 182.065px;" class="animable"><polygon points="195.34 187.44 195.35 191.73 151.45 217.07 151.44 212.78 195.34 187.44" style="fill: rgb(255, 255, 255); transform-origin: 173.395px 202.255px;" id="elvqfkym7bztg" class="animable"></polygon><polygon points="155.66 174.52 158.31 176.03 152.17 186.66 158.34 190.18 155.72 194.72 149.54 191.21 143.41 201.83 140.76 200.33 146.9 189.7 140.72 186.18 143.35 181.63 149.53 185.14 155.66 174.52" style="fill: rgb(255, 255, 255); transform-origin: 149.53px 188.175px;" id="elno4579wjlho" class="animable"></polygon><polygon points="203.22 147.06 205.86 148.57 199.73 159.2 205.9 162.72 203.27 167.27 197.1 163.75 190.97 174.37 188.32 172.87 194.45 162.25 188.28 158.73 190.91 154.17 197.08 157.69 203.22 147.06" style="fill: rgb(255, 255, 255); transform-origin: 197.09px 160.715px;" id="el5hyaftheuzt" class="animable"></polygon></g></g><polygon points="119.22 156.76 119.23 158.85 111.01 163.6 111.02 168.74 118.35 164.51 118.36 166.55 111.03 170.78 111.04 176.21 119.56 171.29 119.57 173.36 108.97 179.48 108.92 162.71 119.22 156.76" style="fill: rgb(255, 255, 255); transform-origin: 114.245px 168.12px;" id="elxscva7fxl5" class="animable"></polygon><path d="M131.51,160.82l3.48,3.64-2.27,1.31-3.18-3.32c-.28.18-.59.4-.91.58L125,165.11v5.1l-2.08,1.2,0-16.77,5.7-3.29c3.79-2.19,6.1-1.32,6.11,2.33A10.05,10.05,0,0,1,131.51,160.82Zm-2.94.19c2.66-1.54,4.06-3.73,4.06-6.13s-1.42-2.94-4.09-1.41L125,155.52l0,7.54,3.56-2.05" style="fill: rgb(255, 255, 255); transform-origin: 128.955px 160.786px;" id="elqasjmzu9u3h" class="animable"></path><path d="M146.69,152.06l3.47,3.64L147.89,157l-3.16-3.33c-.3.19-.61.41-.92.59l-3.6,2.08v5.09l-2.1,1.21-.05-16.77,5.7-3.29c3.81-2.2,6.1-1.32,6.11,2.33A10,10,0,0,1,146.69,152.06Zm-2.95.19c2.68-1.54,4.07-3.73,4.06-6.13s-1.41-3-4.08-1.41l-3.54,2,0,7.53,3.54-2" style="fill: rgb(255, 255, 255); transform-origin: 144.11px 152.013px;" id="eliu7gbdi1k2j" class="animable"></path><path d="M159.85,133.11c4.45-2.57,7.75-.82,7.76,4.11a16.08,16.08,0,0,1-7.71,13.05c-4.49,2.6-7.79.82-7.8-4.09S155.36,135.7,159.85,133.11Zm.05,15a12,12,0,0,0,5.63-9.7c0-3.73-2.44-5-5.67-3.18a12,12,0,0,0-5.68,9.73c0,3.72,2.44,5,5.72,3.15" style="fill: rgb(255, 255, 255); transform-origin: 159.855px 141.697px;" id="el8wkmzq3lql7" class="animable"></path><path d="M179.4,133.18l3.49,3.62-2.29,1.32-3.16-3.33c-.28.18-.61.41-.91.58l-3.61,2.09v5.09l-2.08,1.2,0-16.76,5.7-3.3c3.79-2.18,6.1-1.32,6.11,2.34A10.1,10.1,0,0,1,179.4,133.18Zm-2.94.18c2.67-1.54,4.06-3.73,4-6.12s-1.4-3-4.07-1.42l-3.55,2.05,0,7.54,3.55-2" style="fill: rgb(255, 255, 255); transform-origin: 176.865px 133.128px;" id="el5llw0owl6ar" class="animable"></path><polygon points="199.91 110.18 192.78 124.91 198.41 121.66 198.39 118.01 200.35 116.88 200.36 120.53 203.13 118.93 203.14 120.98 200.37 122.58 200.38 126.7 198.36 127.87 198.35 123.75 190.22 128.44 190.22 126.77 197.65 111.48 199.91 110.18" style="fill: rgb(255, 255, 255); transform-origin: 196.68px 119.31px;" id="el23si7d6osna" class="animable"></polygon><path d="M208.94,104.77c3-1.76,5-1.09,5,1.79,0,1.62-.4,3.33-2.38,6.65l-4.45,7.53,7.49-4.32v2.07l-10.49,6.05v-1.62l5.93-10c1.53-2.62,1.82-3.83,1.82-4.89,0-1.73-1.07-2.16-3.11-1a9.46,9.46,0,0,0-3.74,4l-1.42-.6A13.8,13.8,0,0,1,208.94,104.77Z" style="fill: rgb(255, 255, 255); transform-origin: 209.095px 114.172px;" id="elj4vxw42jt6j" class="animable"></path><path d="M221,97.79c3.92-2.26,6.13-.52,6.15,4.83a14.44,14.44,0,0,1-6.88,12.78,6.5,6.5,0,0,1-3.64,1.13l.8-2.33a4.66,4.66,0,0,0,2.82-.86c3-1.71,4.83-4.91,4.82-9.11v-.61a10,10,0,0,1-4.2,4.65c-2.9,1.67-5,.88-5-2.21S218.12,99.47,221,97.79Zm.21,8.33a6.6,6.6,0,0,0,3.36-5.2c0-1.73-1.21-2.55-3.48-1.24a6.23,6.23,0,0,0-3.21,5.11c0,2,1.28,2.51,3.33,1.33" style="fill: rgb(255, 255, 255); transform-origin: 221.514px 106.677px;" id="el5hd2m6szsti" class="animable"></path><path d="M145.66,79l-4.28-8.19,0-.12,1.4-9.25a3.91,3.91,0,0,0-1.93-4L121.56,46.4a1.86,1.86,0,0,0-1.86,3.23L139,60.71l.09.2-1.39,9.26a3.92,3.92,0,0,0,.4,2.4l4.28,8.19v.16l-6.14,14.7a3.91,3.91,0,0,0-.3,1.51v2.81a.88.88,0,0,0,.53.84,2.94,2.94,0,0,0,2.65,0,.93.93,0,0,0,.55-.77l0-3,6.13-14.7A3.92,3.92,0,0,0,145.66,79Z" style="fill: rgb(186, 104, 200); transform-origin: 132.434px 73.624px;" id="ellqu4c2re0ff" class="animable"></path><path d="M151,69.59v-.13l2.38-6.91a3.9,3.9,0,0,0,.13-2.06l-3.44-17a1.87,1.87,0,0,0-3.67.74l3.45,17.12-2.38,6.92a4,4,0,0,0,0,2.63l2.41,6.54v.12l-3.74,12.12a4.17,4.17,0,0,0-.17,1.16v2.64a.93.93,0,0,0,.54.76,2.88,2.88,0,0,0,2.65,0,.88.88,0,0,0,.54-.84V90.76l3.74-12.12a3.92,3.92,0,0,0-.07-2.51Z" style="fill: rgb(69, 90, 100); transform-origin: 149.791px 68.2755px;" id="elqxm2wx1nqg" class="animable"></path><path d="M184.56,53.08h-6.47a3.9,3.9,0,0,0-3.26,1.74l-3.62,5.41-.12.08-4.74,1.12a3.93,3.93,0,0,0-2.7,2.26,4,4,0,0,0-.15,2.72l.53,2a.2.2,0,0,1,0,.15.27.27,0,0,1-.12.09l-1.46.36a3.92,3.92,0,0,0-2.81,2.68l-4.51,15.07A3.86,3.86,0,0,0,155,87.9v2.32h0a.91.91,0,0,0,.54.77,2.94,2.94,0,0,0,2.65,0,.86.86,0,0,0,.53-.88V87.84l4.51-15.07.13-.13,1.46-.36A3.94,3.94,0,0,0,167.46,70a4.16,4.16,0,0,0,.14-2.7l-.54-2a.19.19,0,0,1,0-.15.14.14,0,0,1,.12-.09L172,64a4,4,0,0,0,2.37-1.64l3.61-5.41.16-.09h6.47a1.87,1.87,0,1,0,0-3.73Z" style="fill: rgb(186, 104, 200); transform-origin: 170.807px 72.1927px;" id="el4bpy2gemqhw" class="animable"></path><g id="el4x80ybv9ggs"><g style="opacity: 0.1; transform-origin: 152.693px 71.5418px;" class="animable"><path d="M145.66,79l-4.28-8.19,0-.12,1.4-9.25a3.91,3.91,0,0,0-1.93-4L121.56,46.4a1.86,1.86,0,0,0-1.86,3.23L139,60.71l.09.2-1.39,9.26a3.92,3.92,0,0,0,.4,2.4l4.28,8.19v.16l-6.14,14.7a3.91,3.91,0,0,0-.3,1.51v2.81a.88.88,0,0,0,.53.84,2.94,2.94,0,0,0,2.65,0,.93.93,0,0,0,.55-.77l0-3,6.13-14.7A3.92,3.92,0,0,0,145.66,79Z" style="fill: rgb(255, 255, 255); transform-origin: 132.434px 73.624px;" id="elounr9demk0k" class="animable"></path><path d="M151,69.59v-.13l2.38-6.91a3.9,3.9,0,0,0,.13-2.06l-3.44-17a1.87,1.87,0,0,0-3.67.74l3.45,17.12-2.38,6.92a4,4,0,0,0,0,2.63l2.41,6.54v.12l-3.74,12.12a4.17,4.17,0,0,0-.17,1.16v2.64a.93.93,0,0,0,.54.76,2.88,2.88,0,0,0,2.65,0,.88.88,0,0,0,.54-.84V90.76l3.74-12.12a3.92,3.92,0,0,0-.07-2.51Z" style="fill: rgb(255, 255, 255); transform-origin: 149.791px 68.2755px;" id="el8ubvg3j261e" class="animable"></path><path d="M184.56,53.08h-6.47a3.9,3.9,0,0,0-3.26,1.74l-3.62,5.41-.12.08-4.74,1.12a3.93,3.93,0,0,0-2.7,2.26,4,4,0,0,0-.15,2.72l.53,2a.2.2,0,0,1,0,.15.27.27,0,0,1-.12.09l-1.46.36a3.92,3.92,0,0,0-2.81,2.68l-4.51,15.07A3.86,3.86,0,0,0,155,87.9v2.32h0a.91.91,0,0,0,.54.77,2.94,2.94,0,0,0,2.65,0,.86.86,0,0,0,.53-.88V87.84l4.51-15.07.13-.13,1.46-.36A3.94,3.94,0,0,0,167.46,70a4.16,4.16,0,0,0,.14-2.7l-.54-2a.19.19,0,0,1,0-.15.14.14,0,0,1,.12-.09L172,64a4,4,0,0,0,2.37-1.64l3.61-5.41.16-.09h6.47a1.87,1.87,0,1,0,0-3.73Z" style="fill: rgb(255, 255, 255); transform-origin: 170.807px 72.1927px;" id="el22twvsa39mt" class="animable"></path></g></g><polygon points="87.39 29.94 98.2 42.36 105.71 37.94 114.52 58.93 104.3 44.05 96.31 49.41 87.39 29.94" style="fill: rgb(186, 104, 200); transform-origin: 100.955px 44.435px;" id="el4u0ifbqvg13" class="animable"></polygon><polygon points="138.73 25.83 133.71 35.88 138.73 36.65 134.61 46.82 143.24 35.1 136.41 33.94 138.73 25.83" style="fill: rgb(186, 104, 200); transform-origin: 138.475px 36.325px;" id="elc2ut3ofbbyb" class="animable"></polygon><polygon points="182.77 29.21 180.71 41.16 176.59 39.61 174.44 51.72 177.79 42.44 182.43 44.42 182.77 29.21" style="fill: rgb(186, 104, 200); transform-origin: 178.605px 40.465px;" id="elvinio8pggcc" class="animable"></polygon><polygon points="189.38 50.43 197.67 43.17 197.67 46.8 203.64 42.62 195.61 51.25 195.82 46.15 189.38 50.43" style="fill: rgb(186, 104, 200); transform-origin: 196.51px 46.935px;" id="elz5uwsxto52q" class="animable"></polygon><polygon points="186.43 61.34 193.68 68.26 195.05 64.37 202.86 70.43 194.65 60.13 193.16 65.28 186.43 61.34" style="fill: rgb(186, 104, 200); transform-origin: 194.645px 65.28px;" id="elmuuvqllh9vq" class="animable"></polygon><polygon points="128.88 76.1 117.86 80.22 121.75 83.19 113.23 88.1 127.14 84.34 122.97 80.99 128.88 76.1" style="fill: rgb(186, 104, 200); transform-origin: 121.055px 82.1px;" id="elbiuhsu8rl9" class="animable"></polygon><g id="els6z42bhd78o"><g style="opacity: 0.5; transform-origin: 145.515px 56.965px;" class="animable"><polygon points="87.39 29.94 98.2 42.36 105.71 37.94 114.52 58.93 104.3 44.05 96.31 49.41 87.39 29.94" style="fill: rgb(255, 255, 255); transform-origin: 100.955px 44.435px;" id="ell2rewv6dym" class="animable"></polygon><polygon points="138.73 25.83 133.71 35.88 138.73 36.65 134.61 46.82 143.24 35.1 136.41 33.94 138.73 25.83" style="fill: rgb(255, 255, 255); transform-origin: 138.475px 36.325px;" id="el22nzluj520u" class="animable"></polygon><polygon points="182.77 29.21 180.71 41.16 176.59 39.61 174.44 51.72 177.79 42.44 182.43 44.42 182.77 29.21" style="fill: rgb(255, 255, 255); transform-origin: 178.605px 40.465px;" id="elluiu2zzlm3j" class="animable"></polygon><polygon points="189.38 50.43 197.67 43.17 197.67 46.8 203.64 42.62 195.61 51.25 195.82 46.15 189.38 50.43" style="fill: rgb(255, 255, 255); transform-origin: 196.51px 46.935px;" id="elbzzr096jvst" class="animable"></polygon><polygon points="186.43 61.34 193.68 68.26 195.05 64.37 202.86 70.43 194.65 60.13 193.16 65.28 186.43 61.34" style="fill: rgb(255, 255, 255); transform-origin: 194.645px 65.28px;" id="elaqcmub8by5" class="animable"></polygon><polygon points="128.88 76.1 117.86 80.22 121.75 83.19 113.23 88.1 127.14 84.34 122.97 80.99 128.88 76.1" style="fill: rgb(255, 255, 255); transform-origin: 121.055px 82.1px;" id="elwnjcwlagjuh" class="animable"></polygon></g></g></g><g id="freepik--Envelopes--inject-70" class="animable" style="transform-origin: 254.47px 352.795px;"><polygon points="284.39 352.54 223.46 360.69 231.86 381.48 292.8 373.32 284.39 352.54" style="fill: rgb(186, 104, 200); transform-origin: 258.13px 367.01px;" id="elnyn8kbezujd" class="animable"></polygon><g id="els2nt7tfp7uh"><polygon points="284.39 352.54 260.75 370.56 223.46 360.69 284.39 352.54" style="fill: rgb(255, 255, 255); opacity: 0.2; transform-origin: 253.925px 361.55px;" class="animable"></polygon></g><g id="elxdiv7a6y1jp"><polygon points="284.39 352.54 292.8 373.32 231.86 381.48 223.46 360.69 260.75 370.56 284.39 352.54" style="fill: rgb(255, 255, 255); opacity: 0.1; transform-origin: 258.13px 367.01px;" class="animable"></polygon></g><polygon points="312.88 280.25 299.14 300.02 357.21 313.65 370.96 293.88 312.88 280.25" style="fill: rgb(186, 104, 200); transform-origin: 335.05px 296.95px;" id="eloe1vdnpaci" class="animable"></polygon><g id="el8g5fvsvswji"><polygon points="370.96 293.88 333.67 300.73 312.88 280.25 370.96 293.88" style="fill: rgb(255, 255, 255); opacity: 0.3; transform-origin: 341.92px 290.49px;" class="animable"></polygon></g><g id="elmjnvvbi44p"><polygon points="370.96 293.88 357.21 313.65 299.14 300.02 312.88 280.25 333.67 300.73 370.96 293.88" style="fill: rgb(255, 255, 255); opacity: 0.1; transform-origin: 335.05px 296.95px;" class="animable"></polygon></g><polygon points="181.12 314.9 167.37 334.67 225.44 348.3 239.19 328.53 181.12 314.9" style="fill: rgb(186, 104, 200); transform-origin: 203.28px 331.6px;" id="elijhyiyn5zei" class="animable"></polygon><g id="el63csn7wg5ma"><polygon points="239.19 328.53 201.9 335.38 181.12 314.9 239.19 328.53" style="fill: rgb(255, 255, 255); opacity: 0.3; transform-origin: 210.155px 325.14px;" class="animable"></polygon></g><g id="elxwhywp49bmb"><polygon points="239.19 328.53 225.44 348.3 167.37 334.67 181.12 314.9 201.9 335.38 239.19 328.53" style="fill: rgb(255, 255, 255); opacity: 0.1; transform-origin: 203.28px 331.6px;" class="animable"></polygon></g><polygon points="397.04 305.8 346.27 326.91 367.82 344.25 418.58 323.14 397.04 305.8" style="fill: rgb(186, 104, 200); transform-origin: 382.425px 325.025px;" id="el1a28hu27j29" class="animable"></polygon><g id="el54bwtargzam"><polygon points="397.04 305.8 387.21 327.72 346.27 326.91 397.04 305.8" style="fill: rgb(255, 255, 255); opacity: 0.5; transform-origin: 371.655px 316.76px;" class="animable"></polygon></g><g id="elbqk1rffbecv"><polygon points="397.04 305.8 418.58 323.14 367.82 344.25 346.27 326.91 387.21 327.72 397.04 305.8" style="fill: rgb(255, 255, 255); opacity: 0.3; transform-origin: 382.425px 325.025px;" class="animable"></polygon></g><polygon points="299.79 314.9 279.22 332.56 331.14 352.9 351.7 335.25 299.79 314.9" style="fill: rgb(186, 104, 200); transform-origin: 315.46px 333.9px;" id="elimqb0l41dpg" class="animable"></polygon><g id="elygk7e1p3g4q"><polygon points="351.7 335.25 312.76 337.43 299.79 314.9 351.7 335.25" style="fill: rgb(255, 255, 255); opacity: 0.2; transform-origin: 325.745px 326.165px;" class="animable"></polygon></g><g id="elo5qi37ajr4"><polygon points="351.7 335.25 331.14 352.9 279.22 332.56 299.79 314.9 312.76 337.43 351.7 335.25" style="fill: rgb(255, 255, 255); opacity: 0.1; transform-origin: 315.46px 333.9px;" class="animable"></polygon></g><polygon points="345.82 402.78 309.7 398.55 297.48 434.08 297.48 434.08 297.48 434.08 297.48 434.08 297.48 434.08 333.6 438.32 345.82 402.78" style="fill: rgb(186, 104, 200); transform-origin: 321.65px 418.435px;" id="elzizxoamf5rf" class="animable"></polygon><g id="el363atlzouqw"><polygon points="309.7 398.55 328.32 418.53 297.48 434.08 309.7 398.55" style="fill: rgb(255, 255, 255); opacity: 0.5; transform-origin: 312.9px 416.315px;" class="animable"></polygon></g><g id="el1lcwf2cflpx"><polygon points="333.6 438.32 297.48 434.08 328.32 418.53 309.7 398.55 345.82 402.78 333.6 438.32" style="fill: rgb(255, 255, 255); opacity: 0.3; transform-origin: 321.65px 418.435px;" class="animable"></polygon></g><polygon points="282.75 423.27 229.29 442.02 248.44 460.29 301.9 441.54 282.75 423.27" style="fill: rgb(186, 104, 200); transform-origin: 265.595px 441.78px;" id="elsucs5mep95c" class="animable"></polygon><g id="elz8ahjm7rhce"><polygon points="282.75 423.27 270 444.69 229.29 442.02 282.75 423.27" style="fill: rgb(255, 255, 255); opacity: 0.5; transform-origin: 256.02px 433.98px;" class="animable"></polygon></g><g id="elwp7aiw0dmg"><polygon points="282.75 423.27 301.9 441.54 248.44 460.29 229.29 442.02 270 444.69 282.75 423.27" style="fill: rgb(255, 255, 255); opacity: 0.3; transform-origin: 265.595px 441.78px;" class="animable"></polygon></g><polygon points="330.87 245.3 286.47 270.94 312.43 286.02 356.83 260.39 330.87 245.3" style="fill: rgb(186, 104, 200); transform-origin: 321.65px 265.66px;" id="elxacw2mngfsp" class="animable"></polygon><g id="eln1h272zicr"><polygon points="286.47 270.94 325.45 268.83 330.87 245.3 286.47 270.94" style="fill: rgb(255, 255, 255); opacity: 0.5; transform-origin: 308.67px 258.12px;" class="animable"></polygon></g><g id="elh8747ap33qs"><polygon points="286.47 270.94 312.43 286.02 356.83 260.39 330.87 245.3 325.45 268.83 286.47 270.94" style="fill: rgb(255, 255, 255); opacity: 0.3; transform-origin: 321.65px 265.66px;" class="animable"></polygon></g><polygon points="272.26 314.44 225.76 336.03 250.28 353.36 296.78 331.77 272.26 314.44" style="fill: rgb(186, 104, 200); transform-origin: 261.27px 333.9px;" id="eldcu7k8nbb8" class="animable"></polygon><g id="elwn8vnfrd0qr"><polygon points="225.76 336.03 264.78 337.39 272.26 314.44 225.76 336.03" style="fill: rgb(255, 255, 255); opacity: 0.6; transform-origin: 249.01px 325.915px;" class="animable"></polygon></g><g id="el8sd559yhy5j"><polygon points="225.76 336.03 250.28 353.36 296.78 331.77 272.26 314.44 264.78 337.39 225.76 336.03" style="fill: rgb(255, 255, 255); opacity: 0.4; transform-origin: 261.27px 333.9px;" class="animable"></polygon></g><polygon points="354.93 303.74 292.41 305.41 294.23 326.72 356.75 325.05 354.93 303.74" style="fill: rgb(186, 104, 200); transform-origin: 324.58px 315.23px;" id="elyvn3uda58c8" class="animable"></polygon><g id="eldxrf62g0iy8"><polygon points="354.93 303.74 326.06 319 292.41 305.41 354.93 303.74" style="fill: rgb(255, 255, 255); opacity: 0.5; transform-origin: 323.67px 311.37px;" class="animable"></polygon></g><g id="ela1jv298077"><polygon points="354.93 303.74 356.75 325.05 294.23 326.72 292.41 305.41 326.06 319 354.93 303.74" style="fill: rgb(255, 255, 255); opacity: 0.3; transform-origin: 324.58px 315.23px;" class="animable"></polygon></g><polygon points="259.87 298.83 197.35 300.5 199.17 321.81 261.68 320.14 259.87 298.83" style="fill: rgb(186, 104, 200); transform-origin: 229.515px 310.32px;" id="elsxvipzazglg" class="animable"></polygon><g id="el63mu676q0yq"><polygon points="259.87 298.83 231 314.09 197.35 300.5 259.87 298.83" style="fill: rgb(255, 255, 255); opacity: 0.5; transform-origin: 228.61px 306.46px;" class="animable"></polygon></g><g id="el5d1mqaetch"><polygon points="259.87 298.83 261.68 320.14 199.17 321.81 197.35 300.5 231 314.09 259.87 298.83" style="fill: rgb(255, 255, 255); opacity: 0.3; transform-origin: 229.515px 310.32px;" class="animable"></polygon></g><path d="M286.94,396.62,255,386h0l-31.13,31.39h0l32,10.68ZM257,392.76l4.65,15.55h0Z" style="fill: rgb(186, 104, 200); transform-origin: 255.405px 407.035px;" id="el80j7ssu13pu" class="animable"></path><g id="elrwobxkjwcm"><polygon points="254.99 385.95 261.68 408.31 223.86 417.34 254.99 385.95" style="fill: rgb(255, 255, 255); opacity: 0.2; transform-origin: 242.77px 401.645px;" class="animable"></polygon></g><g id="elgaqfcttrze"><polygon points="255.81 428.01 223.86 417.34 261.68 408.31 254.99 385.95 286.94 396.62 255.81 428.01" style="fill: rgb(255, 255, 255); opacity: 0.1; transform-origin: 255.4px 406.98px;" class="animable"></polygon></g><polygon points="269.29 276.56 251.82 311.34 287.2 317.36 304.65 282.57 269.29 276.56" style="fill: rgb(186, 104, 200); transform-origin: 278.235px 296.96px;" id="elo7l81pa89r9" class="animable"></polygon><g id="elq308ni8ixn"><polygon points="269.29 276.56 284.87 297.39 251.82 311.34 269.29 276.56" style="fill: rgb(255, 255, 255); opacity: 0.5; transform-origin: 268.345px 293.95px;" class="animable"></polygon></g><g id="eli9zc3tzs5ko"><polygon points="287.2 317.36 251.82 311.34 284.87 297.39 269.29 276.56 304.65 282.57 287.2 317.36" style="fill: rgb(255, 255, 255); opacity: 0.3; transform-origin: 278.235px 296.96px;" class="animable"></polygon></g><polygon points="319.58 342.24 288.17 353.33 320.87 384.31 352.27 373.22 319.58 342.24" style="fill: rgb(186, 104, 200); transform-origin: 320.22px 363.275px;" id="el24mhg4bhlmr" class="animable"></polygon><g id="el8tbe627q2g8"><polygon points="319.58 342.24 352.27 373.22 315.23 365.83 319.58 342.24" style="fill: rgb(255, 255, 255); opacity: 0.5; transform-origin: 333.75px 357.73px;" class="animable"></polygon></g><g id="el8zqsu5t6z4u"><polygon points="319.58 342.24 315.23 365.83 352.27 373.22 320.87 384.31 288.17 353.33 319.58 342.24" style="fill: rgb(255, 255, 255); opacity: 0.3; transform-origin: 320.22px 363.275px;" class="animable"></polygon></g><polygon points="299.05 367 254.65 392.64 280.61 407.73 325.01 382.09 299.05 367" style="fill: rgb(186, 104, 200); transform-origin: 289.83px 387.365px;" id="elakfeqnvq4kv" class="animable"></polygon><g id="elbije67081sg"><polygon points="254.65 392.64 293.63 390.53 299.05 367 254.65 392.64" style="fill: rgb(255, 255, 255); opacity: 0.6; transform-origin: 276.85px 379.82px;" class="animable"></polygon></g><g id="elqnch18xny8n"><polygon points="254.65 392.64 280.61 407.73 325.01 382.09 299.05 367 293.63 390.53 254.65 392.64" style="fill: rgb(255, 255, 255); opacity: 0.4; transform-origin: 289.83px 387.365px;" class="animable"></polygon></g><polygon points="197.61 382.55 165.61 393.05 196.59 424.61 228.6 414.11 197.61 382.55" style="fill: rgb(186, 104, 200); transform-origin: 197.105px 403.58px;" id="el65kofr40nnj" class="animable"></polygon><g id="elo22nt9czaxk"><polygon points="202.24 401.12 196.59 424.61 165.61 393.05 202.24 401.12" style="fill: rgb(255, 255, 255); opacity: 0.5; transform-origin: 183.925px 408.83px;" class="animable"></polygon></g><g id="elxkewnqmlafb"><polygon points="197.61 382.55 228.6 414.11 196.59 424.61 165.61 393.05 196.59 424.61 202.24 401.12 165.61 393.05 197.61 382.55" style="fill: rgb(255, 255, 255); opacity: 0.3; transform-origin: 197.105px 403.58px;" class="animable"></polygon></g><polygon points="229.25 366.64 193.02 370.42 204.28 406.1 240.51 402.33 229.25 366.64" style="fill: rgb(186, 104, 200); transform-origin: 216.765px 386.37px;" id="elvgy4kzekt3h" class="animable"></polygon><g id="el56mieuip9ia"><polygon points="229.25 366.64 240.51 402.33 210.52 387.7 229.25 366.64" style="fill: rgb(255, 255, 255); opacity: 0.6; transform-origin: 225.515px 384.485px;" class="animable"></polygon></g><g id="el0tkpmon80hpo"><polygon points="229.25 366.64 210.52 387.7 240.51 402.33 204.28 406.1 193.02 370.42 229.25 366.64" style="fill: rgb(255, 255, 255); opacity: 0.4; transform-origin: 216.765px 386.37px;" class="animable"></polygon></g><polygon points="190.91 402.95 158.95 392.28 165.64 414.64 165.64 414.64 158.95 392.28 127.83 423.67 127.83 423.67 127.83 423.67 127.83 423.67 127.83 423.67 159.78 434.35 190.91 402.95" style="fill: rgb(186, 104, 200); transform-origin: 159.37px 413.315px;" id="elb1f755jospg" class="animable"></polygon><g id="elcs9bn9iv80i"><polygon points="158.95 392.28 165.64 414.64 127.83 423.67 158.95 392.28" style="fill: rgb(255, 255, 255); opacity: 0.6; transform-origin: 146.735px 407.975px;" class="animable"></polygon></g><g id="elpzv8bhiq2eo"><polygon points="159.78 434.35 127.83 423.67 165.64 414.64 158.95 392.28 190.91 402.95 159.78 434.35" style="fill: rgb(255, 255, 255); opacity: 0.4; transform-origin: 159.37px 413.315px;" class="animable"></polygon></g><polygon points="122.97 341.28 97.01 356.36 141.42 382 167.37 366.91 122.97 341.28" style="fill: rgb(186, 104, 200); transform-origin: 132.19px 361.64px;" id="elgxoipik0znb" class="animable"></polygon><g id="el811jwbam7e"><polygon points="167.37 366.91 128.39 364.8 122.97 341.28 167.37 366.91" style="fill: rgb(255, 255, 255); opacity: 0.2; transform-origin: 145.17px 354.095px;" class="animable"></polygon></g><g id="elxe3n2vdia6"><polygon points="167.37 366.91 141.42 382 97.01 356.36 122.97 341.28 128.39 364.8 167.37 366.91" style="fill: rgb(255, 255, 255); opacity: 0.1; transform-origin: 132.19px 361.64px;" class="animable"></polygon></g><polygon points="126.04 360.36 90.36 365.58 105.89 400.73 141.57 395.51 126.04 360.36" style="fill: rgb(186, 104, 200); transform-origin: 115.965px 380.545px;" id="ely7cbbgmf8gh" class="animable"></polygon><g id="el1s0g6m0otag"><polygon points="126.04 360.36 141.57 395.51 109.89 382.13 126.04 360.36" style="fill: rgb(255, 255, 255); opacity: 0.5; transform-origin: 125.73px 377.935px;" class="animable"></polygon></g><g id="el1fet53awc1v"><polygon points="126.04 360.36 109.89 382.13 141.57 395.51 105.89 400.73 90.36 365.58 126.04 360.36" style="fill: rgb(255, 255, 255); opacity: 0.3; transform-origin: 115.965px 380.545px;" class="animable"></polygon></g><polygon points="226.53 344.04 164.22 347.33 167.68 368.58 229.99 365.29 226.53 344.04" style="fill: rgb(186, 104, 200); transform-origin: 197.105px 356.31px;" id="elzan34o4wyy" class="animable"></polygon><g id="eltxsdv1l498"><polygon points="226.53 344.04 198.87 360.04 164.22 347.33 226.53 344.04" style="fill: rgb(255, 255, 255); opacity: 0.6; transform-origin: 195.375px 352.04px;" class="animable"></polygon></g><g id="elw3qcbnuen0k"><polygon points="226.53 344.04 229.99 365.29 167.68 368.58 164.22 347.33 198.87 360.04 226.53 344.04" style="fill: rgb(255, 255, 255); opacity: 0.3; transform-origin: 197.105px 356.31px;" class="animable"></polygon></g><g id="elybyadoxpcw"><polygon points="223.57 283.62 214.38 288.93 197.03 298.94 242.21 316.63 262.77 298.97 223.57 283.62" style="opacity: 0.1; transform-origin: 229.9px 300.125px;" class="animable"></polygon></g><polygon points="226.68 281.85 217.48 287.15 200.13 297.16 242.21 313.65 262.77 295.99 226.68 281.85" style="fill: rgb(186, 104, 200); transform-origin: 231.45px 297.75px;" id="elbfungrs5fjo" class="animable"></polygon><g id="el7gs9040nsub"><polygon points="223.83 298.17 262.77 295.99 226.68 281.85 217.48 287.15 223.83 298.17" style="fill: rgb(255, 255, 255); opacity: 0.6; transform-origin: 240.125px 290.01px;" class="animable"></polygon></g><g id="elm6r85qzlbzl"><polygon points="262.77 295.99 223.83 298.17 217.48 287.15 200.13 297.16 242.21 313.65 262.77 295.99" style="fill: rgb(255, 255, 255); opacity: 0.4; transform-origin: 231.45px 300.4px;" class="animable"></polygon></g></g><g id="freepik--Character--inject-70" class="animable" style="transform-origin: 379.722px 284.891px;"><path d="M416.25,220.28l1.33-22.53a18.61,18.61,0,0,0-7.39-16l-8.09-6.09L403.28,224Z" style="fill: rgb(186, 104, 200); transform-origin: 409.857px 199.83px;" id="elvfwfmhwslim" class="animable"></path><g id="elk4ufhjrs4l"><path d="M416.25,220.28l1.33-22.53a18.61,18.61,0,0,0-7.39-16l-8.09-6.09L403.28,224Z" style="opacity: 0.1; transform-origin: 409.857px 199.83px;" class="animable"></path></g><g id="el6p8j4efshoh"><path d="M403.67,195.63a54.67,54.67,0,0,0,12,2.64,8.7,8.7,0,0,1-6.71,1.66A8.49,8.49,0,0,1,403.67,195.63Z" style="opacity: 0.1; transform-origin: 409.67px 197.84px;" class="animable"></path></g><path d="M388.7,394.43c-.66,2.07-2.94,3.26-5.11,3.43a25.75,25.75,0,0,1-6.45-.82c-4.8-.87-9.43,0-14.21-.12a20.32,20.32,0,0,1-4.67-.51,7.69,7.69,0,0,1-4-2.36,5.31,5.31,0,0,1-1.15-2.5,5,5,0,0,0,1.15,3.91,7.74,7.74,0,0,0,4,2.35,20.32,20.32,0,0,0,4.67.51c4.78.11,9.41-.75,14.21.12a25.31,25.31,0,0,0,6.45.83c2.17-.18,4.45-1.36,5.11-3.44a5.48,5.48,0,0,0,.17-2.21A5.84,5.84,0,0,1,388.7,394.43Z" style="fill: rgb(38, 50, 56); transform-origin: 370.99px 395.41px;" id="elvgdzjks57ql" class="animable"></path><path d="M388.58,390.45l-.89-4.36a6.35,6.35,0,0,0-.74-2.21,2.15,2.15,0,0,0-1.94-1.11c-2.62-.35-6.32-1.3-8.5.2a19.58,19.58,0,0,1-11.75,3.41c-2.17-.08-4.34-.53-6.5-.26s-4.39,1.46-5,3.54a4.31,4.31,0,0,0-.11,1.89,5.31,5.31,0,0,0,1.15,2.5,7.69,7.69,0,0,0,4,2.36,20.32,20.32,0,0,0,4.67.51c4.78.11,9.41-.75,14.21.12a25.75,25.75,0,0,0,6.45.82c2.17-.17,4.45-1.36,5.11-3.43a5.84,5.84,0,0,0,.17-.81A10.34,10.34,0,0,0,388.58,390.45Z" style="fill: rgb(55, 71, 79); transform-origin: 371.008px 390.005px;" id="elnhyvn7ko3r" class="animable"></path><path d="M375.87,378.4l-.18,5.68a2.24,2.24,0,0,0,2.08,2.32,36.33,36.33,0,0,0,5.72,0,3.24,3.24,0,0,0,2.93-3l.23-4.2Z" style="fill: rgb(255, 168, 167); transform-origin: 381.169px 382.456px;" id="elbuatrqssxiu" class="animable"></path><path d="M413,375.38a4.46,4.46,0,0,1-.76,2.35,4.32,4.32,0,0,1-2.68,1.51,6.78,6.78,0,0,1-6.65-2.74c-.72-1-1.13-2.25-1.8-3.31a15.14,15.14,0,0,0-3.73-3.63,15.7,15.7,0,0,1-3.76-3.6,5.31,5.31,0,0,1-.71-4.8,3.37,3.37,0,0,0-.36.61,5.47,5.47,0,0,0,.68,5.11,16.08,16.08,0,0,0,3.83,3.71,15.39,15.39,0,0,1,3.81,3.74c.69,1.09,1.1,2.34,1.83,3.41a6.86,6.86,0,0,0,6.78,2.82,4.37,4.37,0,0,0,2.74-1.55,5.27,5.27,0,0,0,.79-3.27C413,375.62,413,375.5,413,375.38Z" style="fill: rgb(38, 50, 56); transform-origin: 402.616px 370.91px;" id="elmvzopr91fh" class="animable"></path><path d="M411.22,368.26c-1.72-3-5.28-5.23-8-7.37a10.25,10.25,0,0,0-5.32-2.42,5,5,0,0,0-5,2.53c0,.05,0,.11-.05.16a5.31,5.31,0,0,0,.71,4.8,15.7,15.7,0,0,0,3.76,3.6,15.14,15.14,0,0,1,3.73,3.63c.67,1.06,1.08,2.28,1.8,3.31a6.78,6.78,0,0,0,6.65,2.74,4.32,4.32,0,0,0,2.68-1.51,4.46,4.46,0,0,0,.76-2.35c0-.27,0-.54,0-.82A13.16,13.16,0,0,0,411.22,368.26Z" style="fill: rgb(55, 71, 79); transform-origin: 402.754px 368.883px;" id="elzui3kju0my" class="animable"></path><path d="M403.74,365.63v5.16a8.65,8.65,0,0,0,8-.35l.48-4.65Z" style="fill: rgb(255, 168, 167); transform-origin: 407.98px 368.617px;" id="elgqjjsd9g1l" class="animable"></path><path d="M413.61,272c1.54,4.65-.36,26.7-1.26,47.86,3.35,8,3.45,30.91,1.51,47,0,0-6.56,2-12.62-.09l-5.4-44.62L394.78,297s-1.91,22.31-4.1,36.63c2.06,11,2.28,13.27-2.81,47,0,0-8.26,2.49-14.45-.55-2.88-47.38.47-90.26,1-105.79Z" style="fill: rgb(69, 90, 100); transform-origin: 393.7px 326.795px;" id="elikylnerwo" class="animable"></path><g id="eln9op4xiyzo"><path d="M395.42,312.36l-.86-20.52c5.3,0,10.23-4,14-7.72-3.6,6.4-10.56,9.24-10.56,9.24Z" style="opacity: 0.3; transform-origin: 401.56px 298.24px;" class="animable"></path></g><path d="M373.79,230.73l-.16,44.86c23.65,9.91,39,1,41.07-3.7-1.09-16.35,2.77-35.48,2.47-43.61s-1.29-17.29-13.89-15.45l-13.4,1.31-6.8,1.65Z" style="fill: rgb(186, 104, 200); transform-origin: 395.408px 246.336px;" id="eltfky0auhzhr" class="animable"></path><path d="M403.28,206.41a3.62,3.62,0,0,0,2.62-.89,2.6,2.6,0,0,0,.62-2.25,2.45,2.45,0,0,0,1.8-1.46,2.81,2.81,0,0,0-.42-2.45,4.11,4.11,0,0,0,2.66-2.17,4.31,4.31,0,0,0,.12-3.53,3.82,3.82,0,0,0,2.68-2.6,4.14,4.14,0,0,0-.76-3.82,5.17,5.17,0,0,0,.6-5.14,5.42,5.42,0,0,0-4.41-3,5.29,5.29,0,0,0-1.73-4.75,5.1,5.1,0,0,0-4.87-.95,4.68,4.68,0,0,0-7.8-1.34,3.59,3.59,0,0,0-3.16-1.17,3.7,3.7,0,0,0-2.85,1.89,4.79,4.79,0,0,0-6.77,4.58,2.82,2.82,0,0,0-2,2.79,3,3,0,0,0,2.33,2.69,66.93,66.93,0,0,0,6.28,18.41c1.33,2.59,3,5.21,5.54,6.55C396.52,209.28,400.89,208.45,403.28,206.41Z" style="fill: rgb(69, 90, 100); transform-origin: 396.616px 189.532px;" id="elxg3k6oti0vc" class="animable"></path><polygon points="380.96 191.27 378.19 196.1 381.23 197.22 380.96 191.27" style="fill: rgb(242, 143, 143); transform-origin: 379.71px 194.245px;" id="elxnafjilorbj" class="animable"></polygon><path d="M381.92,182.87a45,45,0,0,0-.8,20.5,7,7,0,0,0,1.28,3.25,5.13,5.13,0,0,0,3.52,1.62,15.12,15.12,0,0,0,4-.38v6.28c4.76,1.12,9.66,1.56,13.4-1.31v-6.42a17,17,0,0,1-8.32.51c-3.29-1.77-3.95-7.78-3.49-9.37a2.47,2.47,0,0,0,2.57.9,3.41,3.41,0,0,0,2.14-1.69,7.13,7.13,0,0,0,.8-2.67,4.88,4.88,0,0,0-.49-3.31,3.47,3.47,0,0,0-3.73-1.26,5.35,5.35,0,0,0-3.14,2.62,9.25,9.25,0,0,0-.55,1.2.74.74,0,0,1-1.44-.18,9.91,9.91,0,0,1,.94-5.25,3.66,3.66,0,0,1-2.69-1.65,3.46,3.46,0,0,1-.52-3A9.93,9.93,0,0,1,381.92,182.87Z" style="fill: rgb(255, 168, 167); transform-origin: 391.811px 198.935px;" id="elhl6u91wpn5" class="animable"></path><path d="M385.72,191.84A15.46,15.46,0,0,0,397.45,187a1.42,1.42,0,0,0,.2-1.7l0,0a1.38,1.38,0,0,0-2-.4,9.28,9.28,0,0,1-4.42,1.88c.11-2.33,3.34-6.87,5-8.51a3,3,0,0,0,1.1-1.56,1.3,1.3,0,0,0-.41-1.12,1.24,1.24,0,0,0-1.12-.34,1,1,0,0,0,.62-1,1.23,1.23,0,0,0-.81-.95,1.6,1.6,0,0,0-1.27,0,1,1,0,0,0-.7-.79,1.73,1.73,0,0,0-1.1,0,5.58,5.58,0,0,0-1.05.49,1.52,1.52,0,0,0-1.84-.52c-4.21,2.14-9.26,9-9.3,13.72A5.87,5.87,0,0,0,385.72,191.84Z" style="fill: rgb(255, 168, 167); transform-origin: 389.097px 182.102px;" id="elajm5v41e3lq" class="animable"></path><path d="M395.75,175.17a11.38,11.38,0,0,0-5.37,5.44C390.77,177,394.32,175.33,395.75,175.17Z" style="fill: rgb(242, 143, 143); transform-origin: 393.065px 177.89px;" id="elp84sqx49zwl" class="animable"></path><path d="M394.29,173.19c-3.56,1.69-5.13,3.46-6.1,5A8.22,8.22,0,0,1,394.29,173.19Z" style="fill: rgb(242, 143, 143); transform-origin: 391.24px 175.69px;" id="elsx898gxdm7f" class="animable"></path><path d="M391.44,172.93a11.65,11.65,0,0,0-5.05,4.11A6.33,6.33,0,0,1,391.44,172.93Z" style="fill: rgb(242, 143, 143); transform-origin: 388.915px 174.985px;" id="eli7qcwgpkzpe" class="animable"></path><path d="M392.79,189.48a12.85,12.85,0,0,1-7.48,1.12,7.17,7.17,0,0,0-2.36-3.72,7,7,0,0,0-2.61-1.36c0,.2,0,.41,0,.61a5.87,5.87,0,0,0,5.42,5.71A15.46,15.46,0,0,0,397.45,187a1.39,1.39,0,0,0,.22-1.63A12.93,12.93,0,0,1,392.79,189.48Z" style="fill: rgb(242, 143, 143); transform-origin: 389.09px 188.608px;" id="elxet4i8e6nw" class="animable"></path><g id="el26qeyqwops2"><path d="M386.7,229c-4,.07-8,.27-12.07.42l-.84,1.36,0,8.4A18.73,18.73,0,0,0,386.7,229Z" style="opacity: 0.2; transform-origin: 380.245px 234.09px;" class="animable"></path></g><path d="M387.09,214.81l-26.72-7.57L383.9,196c3.42-6.26-2.85-11.59-8.17-10.82l-27.21,13.44a11.48,11.48,0,0,0-6.69,10.44h0a11.49,11.49,0,0,0,6.84,10.51l31,13.74C389,236.44,395.52,217.2,387.09,214.81Z" style="fill: rgb(186, 104, 200); transform-origin: 366.409px 209.38px;" id="elrercstnwlak" class="animable"></path><g id="el6vxy81qy7k5"><path d="M360.37,207.24l-7.63-2.17h0a39.36,39.36,0,0,1,12-.57l1.12.12Z" style="opacity: 0.2; transform-origin: 359.3px 205.76px;" class="animable"></path></g></g><g id="freepik--speech-bubble--inject-70" class="animable" style="transform-origin: 300.256px 132.248px;"><path d="M273.68,88l64.43,37.18a7.17,7.17,0,0,1,2.69,2.72,7.26,7.26,0,0,1,.93,3.53V171c0,4.84-4.11,8.12-9.52,5l-5.14-2.93h0l-1.05-.6-.23-.13h0l-34.44-20h0l-23.57-13.47a7.21,7.21,0,0,1-3.63-6.25V93C264.15,87.84,270.45,86.15,273.68,88Z" style="fill: rgb(186, 104, 200); transform-origin: 302.94px 132.248px;" id="eljfzc2rod66e" class="animable"></path><path d="M333.05,128.73h0Z" style="fill: none; transform-origin: 333.05px 128.73px;" id="el5a2gyb87l6f" class="animable"></path><g id="elrauycykyybk"><path d="M335,131.15a7.37,7.37,0,0,0-1.93-2.41h0a6.7,6.7,0,0,0-.87-.6L267.75,91a2.4,2.4,0,0,0-3.6,2.08c0-5.2,6.3-6.89,9.53-5l64.43,37.18a7.17,7.17,0,0,1,2.69,2.72Z" style="fill: rgb(255, 255, 255); opacity: 0.4; transform-origin: 302.475px 109.24px;" class="animable"></path></g><g id="elydj75ie39yr"><path d="M335.8,173.93V134.39a6.11,6.11,0,0,0-.06-.86,7.68,7.68,0,0,0-.75-2.38l5.81-3.24a7.26,7.26,0,0,1,.93,3.53V171c0,4.84-4.11,8.12-9.52,5A2.4,2.4,0,0,0,335.8,173.93Z" style="fill: rgb(255, 255, 255); opacity: 0.2; transform-origin: 336.97px 152.566px;" class="animable"></path></g><polygon points="326.02 172.48 325.79 172.35 325.79 172.35 326.02 172.48" style="fill: none; transform-origin: 325.905px 172.415px;" id="elil1qb0ljdmr" class="animable"></polygon><polygon points="327.07 173.08 326.02 172.48 327.07 173.08 327.07 173.08" style="fill: rgb(186, 104, 200); transform-origin: 326.545px 172.78px;" id="elss2p09wsaoj" class="animable"></polygon><polygon points="259.38 114.74 264.15 111.97 264.15 113.37 259.38 114.74" style="fill: rgb(186, 104, 200); transform-origin: 261.765px 113.355px;" id="elyu4abwt3u9i" class="animable"></polygon><g id="elnpdkx5mkj2"><polygon points="259.38 114.74 264.15 111.97 264.15 113.37 259.38 114.74" style="fill: rgb(255, 255, 255); opacity: 0.4; transform-origin: 261.765px 113.355px;" class="animable"></polygon></g><path d="M265,113.13l-5.35,1.49a1.17,1.17,0,0,0-.48,2l5.56,5.15Z" style="fill: rgb(186, 104, 200); transform-origin: 261.891px 117.45px;" id="el96o86ejm6cs" class="animable"></path><polygon points="276.72 109.38 276.72 111.24 274.5 109.97 274.49 116.42 272.44 115.24 272.46 108.78 270.24 107.5 270.24 105.64 276.72 109.38" style="fill: rgb(255, 255, 255); transform-origin: 273.48px 111.03px;" id="elsmoztl9q77i" class="animable"></polygon><path d="M277.09,128.86l1.56,3.52-2.2-1.27-1.3-3L274,127.5v2.21l-2-1.18,0-8.32,3.31,1.91a5.92,5.92,0,0,1,3.2,4.93C278.51,128.28,278,128.88,277.09,128.86Zm-1.92-2.52c.85.49,1.28.29,1.28-.48a2.25,2.25,0,0,0-1.27-2l-1.14-.65v2.43l1.14.66" style="fill: rgb(255, 255, 255); transform-origin: 275.325px 126.295px;" id="el5697e2zrptg" class="animable"></path><path d="M281,111.71a8.2,8.2,0,0,1,4,6.64c0,2.5-1.72,3.34-4,2a8.25,8.25,0,0,1-4-6.64C277,111.21,278.72,110.37,281,111.71Zm0,6.7c1.09.63,2,.18,2-1.25a4.21,4.21,0,0,0-1.94-3.5c-1.1-.64-2-.19-2,1.24a4.18,4.18,0,0,0,1.95,3.51" style="fill: rgb(255, 255, 255); transform-origin: 281px 116.03px;" id="elpt79pkib2io" class="animable"></path><path d="M289.8,116.76a8.23,8.23,0,0,1,4,6.64c0,2.5-1.72,3.34-4,2a8.23,8.23,0,0,1-4-6.65C285.76,116.26,287.48,115.42,289.8,116.76Zm0,6.7c1.09.64,2,.18,2-1.25a4.19,4.19,0,0,0-1.94-3.5c-1.1-.63-2-.19-2,1.24a4.19,4.19,0,0,0,1.95,3.51" style="fill: rgb(255, 255, 255); transform-origin: 289.8px 121.08px;" id="el6pgxif1y5ln" class="animable"></path><path d="M302.09,137.58l0,4.61c0,2.49-1.26,3.15-3.41,1.92a6.59,6.59,0,0,1-3.39-5.85v-4.61l2.05,1.19v4.53a2.92,2.92,0,0,0,1.37,2.8c.85.49,1.36.21,1.37-1.22v-4.53Z" style="fill: rgb(255, 255, 255); transform-origin: 298.69px 139.181px;" id="elatvt2j9yj2m" class="animable"></path><polygon points="306.3 126.46 306.3 134.79 304.41 133.7 304.41 129.28 302.54 131.8 301.62 131.27 299.79 126.73 299.77 131.02 297.88 129.93 297.9 121.61 299.59 122.58 302.12 128.85 304.62 125.48 306.3 126.46" style="fill: rgb(255, 255, 255); transform-origin: 302.09px 128.2px;" id="eleok8tmq4mon" class="animable"></polygon><polygon points="309.15 141.66 309.15 143.48 305.5 141.38 305.5 142.78 308.71 144.63 308.71 146.4 305.5 144.54 305.49 146.06 309.27 148.24 309.26 150.06 303.45 146.7 303.48 138.38 309.15 141.66" style="fill: rgb(255, 255, 255); transform-origin: 306.36px 144.22px;" id="elyrp4t1xvpca" class="animable"></polygon><path d="M312.12,129.82,315.3,140l-2.13-1.24-.57-1.95L309.55,135l-.58,1.29-2.09-1.2,3.22-6.48Zm-2,3.83,1.86,1.08-.92-3.2-.94,2.12" style="fill: rgb(255, 255, 255); transform-origin: 311.09px 134.305px;" id="el1knsxt9n8y1" class="animable"></path><path d="M313.25,143.87a9.5,9.5,0,0,1,2.63,2.24l-.63,1.38a8,8,0,0,0-2-1.8c-.86-.5-1.17-.35-1.17.07,0,1.27,4.1,2.69,4.09,5.76,0,1.45-1.06,2.08-3.21.83a10.53,10.53,0,0,1-3.05-2.67l.68-1.34a9,9,0,0,0,2.39,2.2c.85.48,1.18.4,1.18,0,0-1.32-4.12-2.74-4.11-5.83C310,143.23,311.1,142.63,313.25,143.87Z" style="fill: rgb(255, 255, 255); transform-origin: 313.04px 148.11px;" id="eljv1ypccpnqa" class="animable"></path><polygon points="322.8 135.98 322.77 144.3 321.08 143.32 317.9 137.05 317.89 141.48 315.88 140.32 315.91 132 317.59 132.97 320.77 139.25 320.79 134.82 322.8 135.98" style="fill: rgb(255, 255, 255); transform-origin: 319.34px 138.15px;" id="eleyd9bzfdzzw" class="animable"></polygon><polygon points="330.9 140.66 328.1 144.39 328.1 147.37 326.05 146.19 326.06 143.17 323.32 136.28 325.47 137.53 327.19 141.82 328.91 139.51 330.9 140.66" style="fill: rgb(255, 255, 255); transform-origin: 327.11px 141.825px;" id="el4f9uep7pg7j" class="animable"></polygon><polygon points="285.33 127.91 285.32 129.72 281.68 127.62 281.67 129.02 284.88 130.87 284.88 132.64 281.67 130.78 281.66 132.3 285.45 134.49 285.44 136.3 279.63 132.95 279.65 124.63 285.33 127.91" style="fill: rgb(255, 255, 255); transform-origin: 282.54px 130.465px;" id="elyo4g4c54zio" class="animable"></polygon><path d="M293.73,140.84l.88,1.72a1.74,1.74,0,0,1-2-.12c-1.18-.68-1.95-1.6-3.16-3.74a8.2,8.2,0,0,1-3.2-6.11c0-2.5,1.71-3.34,4-2a8.24,8.24,0,0,1,4,6.65c0,1.89-1,2.83-2.47,2.59a2.28,2.28,0,0,0,.85,1A1,1,0,0,0,293.73,140.84Zm-3.5-3.56c1.09.63,2,.19,2-1.24a4.2,4.2,0,0,0-1.95-3.51c-1.09-.63-2-.19-2,1.25a4.2,4.2,0,0,0,2,3.5" style="fill: rgb(255, 255, 255); transform-origin: 290.43px 136.388px;" id="elv7o756v1ok" class="animable"></path><polygon points="322.82 149.55 322.81 151.41 320.6 150.14 320.58 156.59 318.54 155.41 318.55 148.96 316.33 147.67 316.34 145.81 322.82 149.55" style="fill: rgb(255, 255, 255); transform-origin: 319.575px 151.2px;" id="elqrcra1m5xgg" class="animable"></polygon><path d="M326.39,151.45a10,10,0,0,1,2.63,2.24l-.64,1.39a8.22,8.22,0,0,0-2-1.81c-.86-.49-1.17-.34-1.17.08,0,1.27,4.1,2.69,4.1,5.76,0,1.44-1.07,2.07-3.22.83a10.56,10.56,0,0,1-3-2.68l.68-1.34a8.7,8.7,0,0,0,2.39,2.2c.84.49,1.18.4,1.18,0,0-1.32-4.12-2.73-4.11-5.83C323.18,150.81,324.24,150.21,326.39,151.45Z" style="fill: rgb(255, 255, 255); transform-origin: 326.2px 155.691px;" id="elaegmztkvj5u" class="animable"></path></g><defs>     <filter id="active" height="200%">         <feMorphology in="SourceAlpha" result="DILATED" operator="dilate" radius="2"></feMorphology>                <feFlood flood-color="#32DFEC" flood-opacity="1" result="PINK"></feFlood>        <feComposite in="PINK" in2="DILATED" operator="in" result="OUTLINE"></feComposite>        <feMerge>            <feMergeNode in="OUTLINE"></feMergeNode>            <feMergeNode in="SourceGraphic"></feMergeNode>        </feMerge>    </filter>    <filter id="hover" height="200%">        <feMorphology in="SourceAlpha" result="DILATED" operator="dilate" radius="2"></feMorphology>                <feFlood flood-color="#ff0000" flood-opacity="0.5" result="PINK"></feFlood>        <feComposite in="PINK" in2="DILATED" operator="in" result="OUTLINE"></feComposite>        <feMerge>            <feMergeNode in="OUTLINE"></feMergeNode>            <feMergeNode in="SourceGraphic"></feMergeNode>        </feMerge>            <feColorMatrix type="matrix" values="0   0   0   0   0                0   1   0   0   0                0   0   0   0   0                0   0   0   1   0 "></feColorMatrix>    </filter></defs></svg>